<svg xmlns="http://www.w3.org/2000/svg" viewBox="0 0 512 512"><path fill-rule="evenodd" d="M209 97.6c-4.8 2-6.8 4.1-9.7 9.7a83 83 0 0 0-6.3 22.8c0 3 2.5 5.4 9.3 9.3 3.5 2 5.4 4 7.4 7.9 2.6 5 2.8 5 3.1 2.3q.3-2.7-2.2-6.4c-3.2-4.5-2.1-7.2 2.9-7.2 3.8 0 10.5-5.4 10.5-8.4 0-1.6-.3-1.5-2.8.3a27 27 0 0 0-4.2 3.6c-.7.9-2.8 1.5-5 1.5-3 0-4.2.5-5 2-.6 1.1-1.7 2-2.4 2-2.3 0-9.6-6-9.6-7.8 0-2.9 5.7-19 8.1-22.9 5.6-9 16.3-9.8 27.6-2 2.4 1.5 5 4.1 5.8 5.7 2 3.7 2 10.6 0 16-.8 2.4-1.4 4.4-1.3 4.5l6.8 3.8q6.6 3.6 8.8 3c1.3-.3 4.3.4 7.2 1.6a46 46 0 0 0 9.5 2.8c4.8.6 5.4 1.3 3 3.3q-4.6 3.8-2 7.6c.8 1.3 2.2 2.4 3 2.4 2 0 1.9-.6-.5-4.5l-2-3.3 4-1.6c4.1-1.6 4.2-1.6 12.7 1.8 7.9 3.2 11.3 3.6 11.3 1.6 0-2.2-23.5-10-30.3-10-1.5 0-4.6-1-6.9-2s-7.7-3-12.2-3.9c-9.2-1.9-8.5-.5-7-14.1 1.1-11-3-16.8-15-21-6.6-2.4-11.8-2.5-16.6-.4m14.4 39.1c-.3 1.6-1.2 5-2 7.5-.7 2.7-.9 5-.4 5.3 1.3.8 4.6-6.1 5.5-11.2.6-3.5.4-4.3-.9-4.3q-1.5.2-2.2 2.8m23.4 4c-2 1.5-4.1 3.5-4.7 4.5-1.1 1.7-1 1.7 2 .2 7.4-3.9 9-5.2 7.7-6.3-1-.7-2.3-.3-5 1.6m-91.9 2A33 33 0 0 0 143 157l-2.5 4.8c-.1.2-1.7-.4-3.4-1.2-1.6-.9-4.7-1.6-6.8-1.5h-3.8l4 2a21 21 0 0 0 5.8 1.9c2 0 3.3 2.3 2.3 3.9-.7 1.1-8.9-2.2-9.4-3.8-.2-.6-1.3-1.1-2.4-1.1q-2 0-1.4 1.6l.6 1.9a36 36 0 0 0 6 2.5l6 2.3-.7 3.6c-1.1 5-.7 17.4.7 21.7 1.3 3.8 6.5 10.4 8.3 10.4q.8-.1-.4-1.2a43 43 0 0 1-6.5-18.2 55 55 0 0 1 10.6-35.7c3.3-4 11.9-8.9 15.9-8.9 2.1 0 1.8.4-2.2 3.1-9 6-15.5 16.6-18.3 29.9a51 51 0 0 0 1.3 25.5 34 34 0 0 1 1.5 5.1c0 .7 3.1 2.6 6.7 4.4 6.2 3 6.9 3 11.6 2 2.7-.6 6.4-2.2 8.2-3.6a55 55 0 0 0 13.3-17.6c0-2 1-2 7.7.8 2.8 1.2 3.3 2 3.3 4.8 0 3.8 2.4 6 10.2 9.6 5.7 2.6 9 2.5 12.5-.3 3.8-3.2 12.1-3 18.4.3 2.4 1.2 7.3 3.3 10.9 4.6s6.5 2.8 6.4 3.4l-.2 2.5c0 .8-.8 1.2-1.5 1-.7-.3-2.5.7-4 2.3-2.4 2.5-4 5.1-10.8 18.2-2 3.7-2.3 8-2 25.5.1 5.5-.3 17.6-.8 26.8-1.4 22.8-2.3 24.4-20.5 34.4-3.8 2-8.3 5.5-9.9 7.5-2.7 3.4-2.9 4-1.8 6.6 2 4.8 10.3 5.5 26.1 2.2 5.2-1 12.7-2 16.6-2 6.5 0 7.3-.2 9.8-3 2.8-2.8 2.8-2.9 1.5-8.2a93 93 0 0 1 1-36.3c2-8 2.3-10.5 1.7-22.5l-.6-13.4 3.7-3.8c2-2 4-3.8 4.3-3.8s0 3.3-.6 7.2a56 56 0 0 0 0 24c.9 3.5 2.2 12.4 3.1 19.8s2.3 16.3 3 19.8a47 47 0 0 1 0 22.8c-1.3 4.3-2.4 5.6-8.6 10.2-4 3-9.5 6.2-12.4 7.2q-9.5 3.3-11 6.6c-.9 2.5 4 6 12 8.3 7 2.1 8.2 2.2 25 1.2 14.1-.7 18.1-1.3 19.4-2.6s1.5-3.3 1.2-10.3c-.5-11.5-.6-38.7-.1-48.7.2-4.4 0-10-.5-12.4l-.7-4.5-1.5 2.8c-1.1 2.1-1.6 8.4-2 26-.5 20-.4 23.9 1 28.2 2.1 6.1 2.4 11.2.9 14-1 1.9-2.4 2.3-9 2.8-4.2.3-11.8 1-16.7 1.7-7.6.9-9.7.8-13.6-.5-8.6-3-12-4.7-11.6-5.9.2-.6 2.7-1.8 5.5-2.7a81 81 0 0 0 16.2-9c10.5-7.2 11-7.6 12-12.3 1.4-5.5.8-13.6-1.6-21.2-.8-2.7-2.4-12-3.4-20.5s-2.6-17.8-3.5-20.5a38 38 0 0 1 0-20.5c1.7-6.5 2-12.4.5-15-1-1.7-.7-2 1-2q2.2 0 3.3-3c.6-1.6 1.7-3 2.3-3 1.5 0 13 6 18.5 9.7l4 2.7-6.9 6.6c-7.1 6.9-8.6 9.9-7.3 14.9.7 2.5.8 2.4 2.5-2 1.6-4.1 10.6-14.7 10.6-12.4 0 .5-1.9 4-4.2 8-3.6 6-4.2 7.7-4.2 13 0 3.3.8 9.5 1.9 13.8 1.6 6.8 2 7.6 3.3 6.3s1.3-2.6-.3-10.5c-2-10.8-1.7-13.2 3.5-24.4 5.9-12.5 6-13.6 1.4-17.7a48 48 0 0 0-18.7-9c-4.4-1.2-4.7-1.4-4.7-4.6 0-1.9.5-3.4 1-3.4s2.3-.9 3.8-2l2.7-2 13.1 5.1 13.2 5.2-1.4 3.3c-.8 2-1.4 6.9-1.4 12.1 0 10.1 2.3 16.5 8 22 4.1 4 5 3.6 1.7-.9a27 27 0 0 1-6.7-19.1c0-24 14.2-45.3 32.7-49.2 5.3-1 3.8 1-3.1 4.4-8.2 4-13.5 10-19.1 21.4a53 53 0 0 0-5.6 30.9c1.2 7.2 3.2 11 8.7 16.3 3.7 3.6 5.2 4.4 9.8 5 3.1.3 7.2.2 9.5-.5a61 61 0 0 0 22.8-19c2.8-5.1 2.6-5.1 13.2-.9 7.2 2.9 7.5 3 9.2 1.2 2.4-2.6 3.1-5.6 1.7-7.6-.7-1-4.9-3-9.3-4.6s-13.5-4.9-20.2-7.5c-10.5-4-12.6-4.4-14.3-3.4q-2 1.3-2 5v3.5l11.3 4.4 11.4 4.4-3.1 3.9a49 49 0 0 1-16.9 15.6c-6.5 3.3-9 3.6-15.2 1.9-18.4-5.1-17.9-40.9.8-60.7q13.6-14.4 26.3-8c10 5.2 12.8 11.1 12.5 26-.2 5.4 0 9.8.4 9.8 1.1 0 3.5-7 3.5-10.3 0-5.5-1.1-9.7-2.4-9q-.9.6.2-1c1.2-1.4 1-2.4-1.1-7.1-2.8-6-5.5-8.2-14.7-11.7-13.6-5.2-21.2-4.9-29.4 1.2l-4.1 3-.6-5.6c-1-8-8-17.6-15.3-20.7l-2.9-1.2.6-8 1.3-11.7c.5-2.9.1-4-2-6.6-3.1-3.7-8.6-6-8.6-3.7 0 .8 1.4 2.3 3 3.2 3.8 2.2 4.4 4 3.1 10.5-.5 2.8-1.3 8.1-1.7 11.7a74 74 0 0 1-10 27.7c-1.9 3-3.9 7.4-4.4 10-1.6 7-2.4 8.1-4.9 6-2-1.8-9.1-4-9.1-2.9 0 .3 1.2 1.8 2.6 3.3 4.5 4.8 1.2 6.3-6.3 3-9-4-11-9.9-5-14.5l3.2-2.6h-4.1c-2.6 0-7.1-1.4-12.5-3.9-11.9-5.4-12.9-5.7-12.9-3.2q0 2 1.5 2.1a93 93 0 0 1 11.2 3.1c9 2.9 9.6 3.3 7.4 4.3-2 .9-5 .2-18-4.3-8.6-3-16.7-6-18.1-6.7l-2.5-1.3h2.6c1.5 0 4.6.6 6.9 1.4 5.3 1.9 7 1.9 7 .1 0-.8-1.5-2-3.3-2.6q-2.7-1.1-2-1.7 3-1.2-1.2-3.1c-3.3-1.5-3.2-1.5-3.8.8q-.7 1.8-2.5 2c-1 0-3.1 1-4.6 2.1l-2.7 2.1 2 2.2 2 2.2-3.2 1.7c-3.2 1.8-3.5 1.7-8.9-.3-3-1.1-6.4-3-7.4-4-1.8-2.1-1.8-2.1 2.8-1.8 5.5.4 6.3-1.2 1.5-2.8-5.6-1.9-4.5-6.4 1.6-6.4 1.5 0 5-1.1 7.8-2.5 3.9-2 5.4-2.3 7-1.5 3.6 2 2.1-1.2-3.1-6.5-4.6-4.6-5.1-5.7-6.8-13.5-1-4.7-2.9-10-4-12s-2.2-4.3-2.2-5.2q-.1-1.7-2-1.8c-2.5 0-2.5.6.4 7.1 1.2 3 2.6 7.4 3 9.7.3 2.4 1.5 6.1 2.6 8.3 1.1 2 2 5 2 6.4 0 2 .5 2.5 2.7 2.5h2.7l-2 2c-2.5 2.5-12.9 4.3-15.8 2.8a166 166 0 0 0-25.1-8.8c-2.9 0-4.7 2.2-4.3 5.2.2 1.7 1.8 2.9 6.7 5 3.5 1.4 6.8 3.2 7.2 4q.9 1.4-3.5 7.5c-5.5 7.5-8.5 10-14.8 11.8-4.6 1.3-5.3 1.3-8.8-.5q-12.2-6.2-10.7-25.8a52 52 0 0 1 8.3-25 32 32 0 0 1 15.2-11.9c3.6-.9 10.3 1.6 13.8 5.1 4 4 5.7 10 5.2 19.3q-.4 7.4.9 7.7c3.2 1.2 2.7-16.4-.6-23.9-2.5-5.5-4.3-6.9-14-10.4-10.5-4-15.3-4-21.2-.3m125 8.2c1.4 2.5 7 4 11.3 3 3.7-.8 3.3-1-5.4-3.4-7-2-7-2-5.8.4m-54.4 1c-5.3 2.1-8.6 4.6-8.6 6.7 0 1.8 1.5 1.7 3-.2.7-.9 3.5-2.5 6-3.6s5.1-2.7 5.4-3.5c.7-1.8.2-1.7-5.8.6m33.9 7.7c-7.9 3.4-12.4 3.9-18.1 2q-8.4-2.9-3 .8c3 2 8.7 3.4 14 3.5a26 26 0 0 1 9 2.5c7.1 3.5 14.3 4.2 18.6 2l3.3-1.7-.7 2.4c-.3 1.2-1 5.1-1.3 8.6-.5 5.4-.4 6.2 1 5.6 1.1-.4 1.9-3.1 2.8-9.5l1.2-8.9h3.3c3.2 0 3.4.2 3.4 3.3v3.2l2-2.4c2.1-2.5 2.9-11.1 1-11.1q-.9 0-1 1c0 1.8-3.2 4-5.9 4-2.6 0-11-2-14.4-3.5-3-1.3-1.9 1.2 1.5 3.3 2.8 1.8 3 2.2 1.5 2.8-2.4.9-11.5 0-15.2-1.5l-3-1.2 4.5-4q8-6.8-4.5-1.2M225.9 176c4.1 10.7 7.5 13 19.3 12.9 7.2 0 7.3-.1 10-3.7q2.9-3.6 2.8-7.5c0-2-.2-3.8-.5-3.8s-1.2 1.7-2 3.7c-2.3 5.5-4.1 7-9 7.7-7.9 1.2-11.8-.6-17-8a54 54 0 0 0-5-6.4c-.3 0 .4 2.3 1.4 5m39.6 6c-1 2.9-1.5 5.4-1.1 5.7 1.3 1.3 3.4-.8 4-4.2.4-2 1-4.3 1.3-5q.4-1.5-1-1.5c-1 0-2.2 2-3.2 5m-92-3.1q-.2.9 1.3 1.6c16 6.3 22.7 8.5 24.4 8 3-1 1.5-1.9-11-6.4-11.6-4.3-13.7-4.7-14.6-3.2m98.4 3c0 2.5 2 3.8 3.1 2q1.7-3-1.4-3.7-1.7-.3-1.7 1.7m33.3 6a34 34 0 0 1-6.2 13.4c-4.3 6.4-4.8 7.7-3.6 8.7s2.6.6 7.5-2.3c4.8-2.9 5.8-3.2 5-1.7-.6 1.1-2.9 3.2-5 4.6-3.5 2.3-4.3 2.5-7.1 1.5-4-1.4-3.9-1.4-3.9 1 0 1 .6 2.1 1.3 2.3a542 542 0 0 1 20.8 7c1.2.5 2.7-1 5.8-6 4.8-7.3 4.9-8.6 1-19a24 24 0 0 0-7.7-10.4c-3-2.7-5.9-5-6.2-5s-1 2.6-1.7 5.9m-24.1 2c.2 3.1-2.7 8.3-7.1 12.5-3.8 3.6-3.8 4.2-.4 5l4.6 1.2c1.5.5 1.6.2.6-1.8s-.6-3.2 2-7.4a30 30 0 0 0 3.8-8.7c.5-3.3.3-3.7-1.6-3.7-1.7 0-2 .5-2 2.8m.6 21.8c-1.4 1.4-.7 2.5 1.3 2.2q1.9-.4 2-1.3c.1-1.2-2.3-1.8-3.3-.9M253.1 222l-2 2.8 6.6 2.9a83 83 0 0 1 11.4 6l4.8 3.2 1-2.7 1.6-4.2c.5-1.4-.7-2.1-6.1-4a30 30 0 0 1-9.1-4.5q-4.6-4.8-8.2.5m37.9-2c0 1.2 3.5 2.8 15.2 7 6.6 2.5 7.7 2.7 8.3 1.4q.4-1.5.3-1.8l-10.2-3.9c-10.1-3.7-13.6-4.4-13.6-2.6m-43.6 14.2c-5.8 9.1-6.7 12.3-5.8 21.2 1 11.6 1 24 0 40.1-1.1 19.8-3 22.7-21.3 31.8-8.4 4.3-10.2 6-10.3 9.8 0 1 10.4 3.1 13.5 2.6 1.7-.2 4.8-1.2 7-2.2 3-1.5 6.5-2 14.7-2 6 0 11.2-.5 11.7-1q1.2-1-.7-7c-2.4-8.3-2-26.6 1-37.3a42 42 0 0 0 1.7-14.2c-.2-3.6-.4-10-.4-14.3V254l5.8-5.5c4.8-4.6 5.7-6 5.7-9 0-2-.5-3.6-1.2-3.8l-9.3-3c-4.4-1.5-8.3-2.6-8.7-2.6s-2 1.9-3.4 4.2m9.4 5.7c-3.2 2.5-3.6 2.6-6 .5-1.6-1.6-1.8-1.5-2.7.7-.7 2-.5 2.5 1.3 3 5.5 1.7 11.2-.8 10.5-4.5-.4-1.7-.6-1.7-3 .3m93.3 1.7q.4 1.7 17.8 8.4c23.2 9 22.2 8.7 21.8 5.9-.3-2.1-2.5-3.2-19.3-9.1l-19.8-6.8q-.7.1-.5 1.6m-101.6 7.7c-2.2 3.4-2.4 8.1-.5 8.5q1.7.5 2.3-3.5l1.2-5.5c.8-2.6-1.3-2.2-3 .5m30.7 10.3c1.9 5 2.2 5.4 3.4 3.8q3-4-1.3-7.3c-4-3.2-4.4-2.6-2.1 3.5m-28 2.7c-2.4 4.3-2.7 30.2-.3 31.7 2.3 1.4 2.7.4 2-4.7a62 62 0 0 1 .5-23.6c1.8-6.9 1.8-6.7.5-6.7-.5 0-1.7 1.5-2.7 3.3m28.3 12.3c-2.5 2.4-3 5.9-1.2 9.3q3 6.2 2.5-.6c-.1-2.1.1-5.3.5-7 .8-3.7.5-4-1.8-1.7m2.4 24c-1.4 3.6-1.2 8.6.5 10.8 1.4 1.8 1.5 1.3 1.5-5.7 0-4.2-.2-7.7-.5-7.7s-1 1.2-1.5 2.6m8.2 3.4c0 3 .3 8.7.7 12.5.7 6.8.7 6.9 1.5 3.1 1-4.3.2-14.8-1.3-18.6-.8-2.1-1-1.6-1 3M239 318.3l-8.8 7.6c-2.8 2.4-5 4.5-4.8 4.8 1.6 1.5 16.2-8.7 18.3-12.8 2-4 0-3.8-4.7.4m10.7 6.8q-2.7 6.9 1 3.9c2.3-2 3.5-4.7 2.8-6.4q-1.3-4-3.8 2.5m42.4 25.7c0 2.4-.7 5.7-1.6 7.3q-2.8 6.1 2 1.6c3-3 3.5-8.2 1.1-11.3-1.3-1.8-1.4-1.6-1.5 2.4"/></svg>