<svg xmlns="http://www.w3.org/2000/svg" viewBox="0 0 512 512"><path fill-rule="evenodd" d="M240.1 115.6a56 56 0 0 0-32 25.5 30 30 0 0 1-6 7.7 244 244 0 0 0-24.5 27.3c-3.7 4.8-4.6 7-4.6 10 0 3.2-1.1 5.5-5.5 11.8-3 4.3-7.7 12.4-10.3 18-6 12.4-10.8 17-19.4 19a50 50 0 0 0-33 25.6 88 88 0 0 0-4.3 9.5 147 147 0 0 1-20.4 26.2c-5.8 6.2-7.8 7.7-12.5 9.1-6.5 2-12 6.4-13.4 10.7-.6 1.6-.8 6.1-.5 10.2.9 10.6.8 22.1 0 31.8-.8 7.9-.7 8.8 1.5 13a30 30 0 0 0 5.9 7.2c3.2 2.6 4.4 2.9 14.6 3.5 9.5.5 11.6.3 13.7-1 3.6-2.4 3.4-6.5-.4-10.2-4-3.8-5.3-8.3-4.5-15.3a194 194 0 0 1 6.1-27.4c1.6-4.8 3.4-6.4 3.4-3 0 1.1 1.4 5.3 3.1 9.3a47 47 0 0 1 4 18.7c1 16.2 3 18.2 17.6 19.6 10.8 1 17.3-1.4 17.3-6.4 0-.6-2-3.1-4.2-5.7-4.2-4.4-4.3-4.8-4.6-12.2-.5-10.6 2-25.4 5.2-30 3-4.7 9-9.8 28.1-23.7 8.3-6 19.1-14.8 24.2-19.6s10-8.8 11-8.8c3.6 0 12.4-5 16.8-9.6 2.5-2.6 7.2-6 10.4-7.4s7.3-4.2 9.3-5.9q3.5-3 6.5-3.1c2.3 0 4.6-1.8 11.8-9 5-5 9.2-9 9.6-9 1.5 0 6.8 10.2 8.8 17s6.8 17.4 10.2 22.7q2.8 4.6 5.8 1.9c3.3-3 15.2-7.6 22.8-9 8.9-1.4 7.4-2.6-3.6-2.6h-6.3l.4-9.7c.5-11.4 1.6-14.1 9.2-22.1l5.1-5.4-4 1.6c-5.3 2.2-9 6-12.3 12.1-2.3 4.4-2.7 6.3-2.8 15.4l-.2 10.4-4.5 3.9-4.5 3.8-2.5-4.3a36 36 0 0 1-3.3-7.2c-.7-2.7-.5-2.8 2.2-2.2s2.7.3-1.8-3.6a16 16 0 0 1-6.3-10.2c-.8-3.2-1.5-7.2-1.5-8.7 0-3.3-1.7-3.8-2.2-.5-.2 1.6-1.6-.6-5.1-7.8l-8-16.3c-3-6-3-6.4-2-11.7a45 45 0 0 1 23.8-27.7c12.1-6.2 32.3-7 36.8-1.5q6 7.3 14.2 13.7c6.1 4.9 15.2 15.3 19.2 22l2.5 4-2.6-.6c-1.4-.3-2.6-.4-2.6-.2s2.5 2.2 5.5 4.4c5.6 4 6.2 4.8 4.5 5.9-2.4 1.5-.7 2.5 3 1.9 3.1-.5 4.8-.1 8.2 1.9A43 43 0 0 1 381 227q1.3 3 2 2c1.2-2 8.6 6.4 12 13.5q3.3 6.4 5.4 6.9c4.2 1 11.8 8.8 14.7 15 1.6 3.4 3 7.2 3 8.6q0 3.2 1-1c.8-2.7.6-4.8-.5-8-.8-2.4-1.4-4.6-1.2-4.7 1-1 10.5 7 13.3 11.1 3.2 4.7 3.3 5.1 3.3 14.8 0 10.3 1.5 16.3 3 12.3a64 64 0 0 0 1-12.6v-10.7l-4.4-6c-5-6.8-12-12.5-17.4-14.3-2-.6-4.8-2.1-6.2-3.4s-4-3-5.8-4.1a17 17 0 0 1-6-7.3c-1.5-3-4.7-7.4-7.2-9.8l-12-11.6a70 70 0 0 0-14.7-11c-6.8-3.5-7.5-4.2-12-12a102 102 0 0 0-24.8-27.2 32 32 0 0 1-12.8-15.7 80 80 0 0 0-17.6-25c-8.2-7.8-14.2-10.3-24-10-3.6 0-8.7-.5-11.5-1.3a42 42 0 0 0-21.5 0m.9 4.4c-3 1-7.5 2.8-10 4a70 70 0 0 0-18 17c-1.1 2.2-1 2.3.6 1.7 1-.4-4.4 5.7-12.2 13.6s-16.2 17-18.8 20.1c-4.3 5.5-4.6 6.2-4.6 11.9 0 8 2.4 16.8 6.8 25.3q8.4 16 22 19c3.1.6 3.8.3 11-6.8 4.2-4.1 9.4-9 11.4-10.7 2.1-1.8 3.8-3.5 3.8-4s-1.7-1.4-3.9-2.2c-5.6-2.2-9.3-10.1-9.8-21.2l-.4-8.1 4 11.8c2.3 6.6 4.1 12.5 4.1 13.3 0 1 1.5 1.4 6.2 1.4 6.5 0 10.8-.8 10.8-1.9 0-.3-2-1.8-4.4-3.3a19 19 0 0 1-5.4-4.5c-1-1.6-.3-1.5 4.6.9 7.7 3.7 8.4 3.6 6.6-.7-5-12.2 2.5-30.9 16.1-40 12.8-8.5 30-13 40.2-10.8 2.6.6 5 1 5.1.8.7-.6-4.7-8.3-9.8-13.8a34 34 0 0 0-18.3-11.7q-8.2-1.7-5.6 1.6c1.6 2-.3 1.9-4.4-.3A37 37 0 0 0 241 120m43.2 29.2c-21 3.7-39.3 24.3-36.7 41.5q1.2 7.5 2.2.2c1-9.4 11.3-23 22-28.7a55 55 0 0 1 27.8-8l11-.6-4.1-2.2a40 40 0 0 0-22.2-2.2m13.4 18.8c1 1.9 5.7 7.5 10.4 12.5 8.7 9.3 14 15.7 14 17 0 .4-2.1.4-4.8.1-4.6-.6-4.6-.6 4.3 3.9 5 2.4 10.3 5.8 12 7.5l2.9 3.1h-4.5l-4.4.1 7.5 2.7c6.2 2.2 8.6 3.7 13.5 8.7a65 65 0 0 1 9.8 13q3.7 7 3.1 4c-1.7-8.8-8.1-20.8-12.7-23.8-1.3-.8-5.6-4.5-9.5-8.1s-7.6-6.6-8-6.6-2.7-2.6-5-5.8a147 147 0 0 0-22.4-24.4c-6.8-6-7.8-6.7-6.2-4m-128.8 35.5c-2.6 4-7.2 12.5-10.2 19s-5.8 11.7-6.1 11.7-.3-.4 0-1c1-1.7-1.1-1-2.8.8-3 3.4-10.7 8.4-10 6.6.5-1.4.1-1.5-2.8-.9a49 49 0 0 0-28.4 22.5c-3 5.8-3 6.4-1 5.6q1.7-.6.9.7c-1.8 3-20.6 25.6-24.3 29.2-4.7 4.4-5 5.5-1.8 4.8 1.7-.4 1.5 0-1.3 2.1-2 1.5-5.5 4.6-7.9 6.9-4.5 4.2-4.6 4-2.3-2q.6-1.5-2.2-.3c-10.4 4-12.3 7.7-10.4 21.4a81 81 0 0 1 0 20.1c-.7 6.6-1 13.4-.6 15.1a20 20 0 0 0 4.2 7.3c3.7 4.1 3.7 4.1 12.3 4.7q13.8 1 13.9-1.7c0-.6-1.3-2.6-3-4.5-2.8-3.2-5-8.8-5-12.9 0-1.1 1.3-8.3 3-16.1 4.6-22.6 7.8-27.3 31.4-45.1 13.6-10.3 32-25.7 36-30.2q1.9-2.1 5.6-2.1 9.2-.2 18.1-7.8c3-2.7 7.2-5.3 9.4-6 6.1-1.7 20.5-11.7 20.5-14.1 0-.5-1.8-1.3-4-2a45 45 0 0 1-24-31c-1-4-2-7.5-2.2-7.7-.2-.1-2.4 3-5 7m98.3 4.3c-.1 7.5 1 10.5 5.4 15.5 4.2 4.5 4.3 4.2 1-2.4a78 78 0 0 1-4.5-12.2l-1.9-7.1zm-21.3.5c-4.7 1.8-8 4.3-19.4 15.5-9.5 9.2-14.5 13.3-16 13.3q-2.4 0-3.8 2.9c-3 5.6-18.3 16-23.6 16-.8.1-3.2 1.9-5.5 4a37 37 0 0 1-18.5 9.6c-4 .6-6.2 2.1-17 11.6-6.9 6-12.8 10.9-13.2 10.9s-2.6 2.7-4.9 6c-3.5 5.4-3.8 6-1.7 5 1.2-.6 0 1-3 3.7s-5.8 6.2-6.6 7.8l-1.6 3v-3.2q-.1-3.1 4.4-9c2.4-3.2 4.3-6 4-6.2-.5-.6-19.3 13.9-20.9 16.2-2.3 3.3-1.8 7.3 2.2 16 3.2 7.3 3.7 9.4 4.3 19.2.7 12.2 1.8 15 6.5 16.4 7.9 2.5 19.3 2.2 20.2-.6.2-.6-1.4-3.1-3.6-5.7-5.6-6.4-6.1-11.7-3.4-32.1 1.5-11.2 7-17.7 30.3-35 15-11.3 19.1-14.7 30-25 5-4.7 7.6-6.4 11.5-7.3q9.4-2.4 15.6-10.2c1.8-2.2 4-4 4.8-4a50 50 0 0 0 14.1-8c0-.3-1.5-1.1-3.4-1.8-4.4-1.6-6.8-4.3-5.6-6.2.8-1.3 1.2-1.3 3.2 0 4.2 2.5 7.3 3.8 10.8 4.5 3.4.6 3.9.2 12.8-8.8l9.3-9.4-2.3-5.6c-1.3-3.1-2.8-5.7-3.3-5.6s-3.6 1-6.7 2.1m-72.6 20.6c-3 4.7-6.2 12.9-6.2 15.9 0 2.7 2.6-.2 4.8-5.5 2.1-5 5.3-15.2 4.7-15.2zm204.3 3c2.2 5 3.6 9.9 4.2 13.8.8 6.1 2.3 5.5 2.3-.9 0-4.2-.6-6.3-3-10-3-4.7-4.9-6.3-3.5-3m-60.5 5c0 3.2 10.7 15.3 13.5 15.3.9 0-1.4-4-4.7-8.2-3.1-4-8.8-8.5-8.8-7m37.2 7.7c2.3 3.6 4.3 6.4 4.4 6.2 0 0-.1-2-.5-4-.5-3.2-1.4-4.5-4.3-6.3l-3.7-2.4zm-200-1c-3.5 4-7.7 11.5-6.4 11.5 1.8 0 7.2-6.7 8.6-10.8.8-2.3 1.4-4.2 1.2-4.2s-1.8 1.6-3.5 3.5M365 256.7c0 2 1.4 5.4 4 9.3 2.1 3.4 4.4 7.8 5 9.8 1.3 4 3.6 7.2 2.7 3.7l-1.1-6.5q-.6-4.6-5.6-12c-4.7-7.1-5-7.3-5-4.3m-77.2 9.3a21 21 0 0 0-5 2.4q-4.4 3-3.4.1c.7-2-1.9-2-9.8 0a66 66 0 0 0-27.6 16c-4.1 4-10.3 9-13.6 11.2a60 60 0 0 0-9.3 7.9c-2.9 3.2-3.2 4.2-2.7 7.3.4 2 1 9 1.6 15.6 1.3 18.2 2 21.5 12.1 52.7 7.5 23.4 8.1 24.4 15.7 26.9 2 .6 5 2.4 6.7 3.9q8.4 7.6 12.8 3.5c1.3-1.2 2-1.2 5.7.2 4 1.6 4.4 1.6 7.1 0q2.9-1.6 6.5-1c2.7.4 4 .2 4.8-.9.6-.8 2.3-1.8 3.7-2.1 4-1 4.5-3.7 1.2-6.7-1.7-1.5-2.7-3.3-2.5-4.5.4-2.8-10-7.6-23-10.5l-9.6-2.1-1.6-6.7a65 65 0 0 1-2.6-28.7c.7-5 1-12.9.9-17.6l-.4-8.5 6.5-1.1a51 51 0 0 0 24-10.2l6.5-4.9 6 1a42 42 0 0 0 22.5-2.3c4.3-1.9 5.6-2 9.4-1a47 47 0 0 0 8.8 1.2c4.1 0 4.6.4 11.4 8.2 4 4.5 8.4 10.7 9.9 13.7s3.7 6.9 5 8.5q2.1 3 3.2 10.7 3.5 25.3 22.1 19.9c2.6-.8 4.2-.6 6.9.7 3.4 1.6 3.5 1.7 2.8 6.2-.4 2.5-.7 5.6-.6 7 .1 3.3 4.2 6.8 8.9 7.5a42 42 0 0 1 8.3 2.7c3.8 1.7 5 1.8 6.9.8 1.7-.9 2.1-1.8 1.8-4-.6-4 1-3.9 10 .6 7.8 3.8 8.2 3.9 15.6 2.8 6-.8 10.6-4.6 9-7.2-2-3.3-14-9-25.4-12.4l-11.5-3.3-.3-5.7-.3-5.7 6.3-6.3c7.1-7 10.3-12.9 12-21.4a35 35 0 0 0-14.3-36.6c-5.3-3.4-5.6-4-3.4-5.8.8-.7 2.4-2.8 3.6-4.7 1.8-3 2-3.8.9-6.3-1.7-4-3-3.8-3 .5 0 2.4-1 4.5-3.2 7.2l-3.4 4.1c-.1.1-1.6 0-3.3-.3l-3-.6 2-3.2q4.5-7.5-1.9-1.4c-2.7 2.7-5.1 4-8.7 4.6-2.8.5-6.2 1.4-7.7 2-2.5 1-2.7.8-3.3-2-.5-2.3-.2-3.6 1.3-5.2 3.2-3.5 4.2-6.3 4.2-11.1 0-5.6-1.5-6-2.4-.7-.3 2.2-2.1 6-4.1 8.5-4 5.2-4 5.6-2 9.5 1.3 2.6 1.3 3-.5 4.6-1.7 1.6-2.6 1.7-5.8.7l-3.7-1.1 2.4 2c2 1.7 2.3 2.4 1.4 3.9-.7 1-1.9 3.4-2.7 5.4-1.5 3.6-1.5 3.6 3.7-1.7a31 31 0 0 1 21.7-10.5c9.5-.5 16.4 2.3 22.9 9.3 6 6.7 8.6 13.4 8.5 22.5-.2 15.9-12.1 30.8-26.8 33.5q-3.8.6-7.6 4.9c-3.8 4-3.9 4-5.9 2.2-1.7-1.5-2.5-1.7-5.2-.7q-9.1 3-14-2c-3.4-3.7-4.9-8-5.6-17.4-.4-4.4-1-7.3-2-7.8-.7-.5-3.1-4.4-5.3-8.7-5-10-19.3-26.4-22.1-25.5-1 .4-2.4.3-3.1-.1s-2.8-.7-4.8-.6-6.7-.9-10.5-2.2c-3.9-1.3-7.2-2.3-7.3-2s.6 1 1.7 2c2.9 2.5 2.7 3-1.8 4.2a59 59 0 0 1-26.1-.8q-12.1-3.3-12-1c0 .4 2 1.6 4.6 2.6l4.6 1.7-2.4 1.9c-5 4-18.6 10-25 11l-6.6 1.2-3.6-3.2c-2-1.8-4.6-3.2-5.7-3.2-1.8 0-1.7.4 1.1 3.9 5.7 7 6.8 15.9 4.5 36.3-.8 6.7-.1 12 3.1 26l1.6 6.8-2.3 2-2.4 2 4-.6a51 51 0 0 1 27.7 7.9c4 2.5 8.2 5.3 9.3 6.1 2 1.5 2 1.5-.2 1.6-1.2 0-2.5-.5-2.8-1a57 57 0 0 0-15.2-7.6c-.3.2 1.2 1.4 3.4 2.4 4.6 2.4 10.9 8.7 9.5 9.6-.6.3-4-1.3-7.5-3.7-6.6-4.4-12.4-7.3-13.2-6.5-.2.2 1.7 2.1 4.3 4.2 11 8.6 7.5 10.6-4.2 2.5q-13.4-9.2-6.2 0c1.9 2.5 3.2 4.9 3 5.3-.7 1.1-5.4-1.5-8.2-4.5a18 18 0 0 0-5.5-3.8q-8-3-10.3-11.9l-7-22.5c-6-18.6-8.3-27.8-8.9-37-1.4-20.3-1.5-23.6-.6-25.3.5-1 4.2-4 8.2-6.7s10.4-8 14-11.6q11-10.6 25-14.4c7.6-2 10.3-2 9.4.3-.3 1-.9 3-1.2 4.7-.6 3-.5 2.9 2.5-1.2a65 65 0 0 1 8.3-8.3c5-4 5-4.6-.3-3M124 270.4c-6.8 4.5-9.5 7-12.6 12l-1.9 3 4.6-3.2c4-3 18-16.3 16.9-16.2-.3 0-3.4 2-7 4.4m220-1.6a42 42 0 0 1-13.5 3.3l-8.5.9c-1.9.2 3.4 2 7.8 2.6q10.1 1.1 17.2-6.1c1.9-2 3.2-3.5 3-3.4-.3 0-3 1.2-6 2.7M306 288c-3.2 1-11.2 6.4-8.4 5.7l5.5-1.2c8.9-1.6 16.8-4 15.7-4.7-1.5-1-9.4-.9-12.8.2m32.3 2.2c-1.7.6-3.2 1.4-3.2 1.9s3.5 1 7.7 1.3l11 1c4.7.6 4-.8-1.1-2.8-6-2.3-10.4-2.7-14.4-1.4m-77.1 9.4c-4.7 1.9-9 3.4-9.8 3.4-2.8 0-1.1 1.5 2 1.7 4.5.4 11.7-2.2 15.8-5.7 4.4-3.8 2.5-3.6-8 .6m94.8 5.3q3.1 3.9 7.6 5.4c2.5.9 4.5 1.4 4.5 1a46 46 0 0 0-14.3-10.3c-.5 0 .5 1.8 2.2 4m19 16c-3.2 3.1-4 8.2-1.6 11.4 1.2 1.6 1.3 1.4 1-1.5-.7-6.4 5-12.2 8.5-8.7q1 1 1.8.6c.9-1-3.3-4.8-5.2-4.8-.8 0-2.9 1.3-4.5 3m-145.4-.7c-1.2 2.9.4 10.2 3.7 16.7 5.3 10.6 4.8 7.4-2.7-17.5q-.3-.8-1 .8M73.1 357.5c0 2.8.4 5.7.9 6.5 1.2 1.9 1.2-5.2 0-9-.6-2-.8-1.5-.9 2.5M418 360c-.9.5-3.2 1-5.3 1.3-5.1.5-9.4 4.7-8.8 8.7q.5 2.8 2 3c1.3 0 1.3.2 0 1.7-4.1 4.9-2.3 9.8 4 10.9 2 .3 5.2 1.5 7 2.5 3.2 1.8 6.2 2.5 6.2 1.3 0-1.3-2.4-4.9-4.9-7.1l-2.6-2.4 4.5.6a50 50 0 0 1 18.9 6.6 18 18 0 0 0 6.5 2.9c1.8 0 1.6-.5-1.4-3.3l-6.5-5.5-3-2.2 3.8 1.6c2.2.8 6.3 3.1 9.3 5.1 6 4 8.3 3.9 3.8-.2-6.3-5.6-15-9.3-31-13.2-1.9-.4-2-1-1.3-6.6.4-3.4.7-6.3.6-6.4-.1 0-1 .2-1.8.7m29.1 20q.1 1 1 1c1 0 .8-.4.5-1s-.8-1-1-1-.5.5-.5 1m3 1.8q.2 1 2.8 2.3 6.1 3 2.7.4c-3-2.5-5.5-3.7-5.5-2.7m-170 12.7c0 1 6.2 3.6 7.3 3.2.7-.3-.5-1.2-2.5-2-4-1.8-4.8-2-4.8-1.2"/></svg>