<svg xmlns="http://www.w3.org/2000/svg" viewBox="0 0 512 512"><path fill-rule="evenodd" d="M420.1 75c-10.3 3.2-19.7 13.9-24 27.2a24 24 0 0 1-5.6 7.7c-5.5 5-8.1 5.2-17.5 1-9.6-4.1-14.2-4.8-32.7-4.4a79 79 0 0 0-21.5 2 110 110 0 0 0-31.8 17.1c-15.3 11.6-16.7 12.6-21.2 13.6-3 .6-4.6.5-6.3-.6a36 36 0 0 0-18.9-4.2c-8.7 1-14.6 4.7-24.6 15.6-9.8 10.6-11.7 11.7-27 16-19 5.3-20.8 6-21.4 8.3-.7 2.7-14.5 10.7-19.5 11.4-2 .3-7-.2-11.1-1.1a87 87 0 0 0-15-1.6c-9.2 0-14.7 2.2-28 10.8-5 3.4-11.7 7.4-14.7 9l-5.3 2.7-4-2.3a14 14 0 0 0-14.4-.2c-3.8 2.3-4.8 4-8 13.9a88 88 0 0 1-6.4 13.5c-4.7 7.4-5.2 8.8-5.9 14.7-1.3 12.1 7 24.5 15.3 22.5 2-.5 3.2-2.2 5.4-6.9 1.5-3.4 6-11 9.9-17 10.6-16 15.6-18.9 37-20.7 11.7-1 28.7-3.7 30.4-4.7.5-.3 3.3.7 6.2 2.2a28 28 0 0 0 14.2 3c4.8.2 10.8.8 13.3 1.4s6.6 1 9.1 1q4.6.1 6 1.7c.7.8 2.5 2.2 4 3 2.4 1.2 3.4 1.1 9.8-1a159 159 0 0 1 33.1-7.1l7.5-.7 2.4 8.4a294 294 0 0 1 4.6 19.3l2.1 11 3.5.3c3.4.3 3.7.7 6.3 7 6.4 15.4 7.6 19.4 7.6 24.7 0 3 .5 7.7 1 10.5 1 4.4.9 6.4-1.4 15.3-5.7 22.5-5.8 32.1-.7 47.6 3 9 3.1 10 3.1 27.5 0 16-.3 19.3-2.5 28.1-3.1 12.6-3.1 14.6 0 18.4l2.7 3.1h12.1c9 0 14.2.6 19.6 2a58 58 0 0 0 27.6.6c9.3-4 5-12-8.2-15.5a71 71 0 0 1-21.5-16 17 17 0 0 1-3.4-7.6 185 185 0 0 1 1.7-34.5l1.3-10.5 7.8-.3c4.4 0 9.1-.8 10.6-1.6 3.2-1.6 6.4-5.8 8.6-11 1.3-3.2 2-3.6 5-3.6 5.4 0 8.3-1.6 10.8-6q2.3-3.9 4.8-4.2c5.6-.7 4.4-10.8-1.3-10.8q-2.2.2-4.6-4.4l-2.4-4.3 2.2-3q10.2-14.6 20.4-3.2a34 34 0 0 1 4.6 34.8c-2.8 6.6-5.8 9.2-11.3 9.8-4.4.5-4.8.4-9.2-4-4-4-7.4-6-7.4-4.1s3.7 7 7.2 9.4c3.7 2.7 4.9 3 11.5 3 8.4 0 11.5-1.2 16.1-6.4a33 33 0 0 0 6.2-15.7c0-1 1-3.3 2.2-5.1 2.5-3.6 2.7-6.5 1.4-18.8-1.3-12.2 1.8-26.5 11.4-53.5a64 64 0 0 0 5-27 100 100 0 0 1 3-22.5 90 90 0 0 0 2.7-14.5c.4-5.7 1-7.5 3.3-10a35 35 0 0 0 9.8-24.5c-.4-4.1 0-4.2 5.8-2.5 2.7.8 9.5-3.8 16.5-11.3a85 85 0 0 0 17.8-25.7 43 43 0 0 0 .7-27.4 32 32 0 0 0-14-16.3A33 33 0 0 0 420 75m.3 4.5c-8.2 3-15.8 11.6-19.9 22.9a29 29 0 0 1-4.6 8 190 190 0 0 0-17.4 25.3c-4 7.3-6.2 9.3-5 4.7.5-2.4.3-2.5-2.2-2-3 .7-3.1.8 2.8-4a70 70 0 0 0 7.6-9.2l5.3-7.3h-4.6q-4.5 0-12.5-3.5a37 37 0 0 0-25.9-3c-3 .9-6.9 1.9-8.5 2.1-2.7.5-2.8.4-1.3-.9 3-2.4 2-3-4.2-2.4-10.8 1.2-14.6 4.6-13.7 12.2l.4 4.3-3-1.3c-3.6-1.5-3.7-3.4-.6-7.7q1.6-2.6 1-2.8c-3.1 0-14.9 6.7-24.6 14a247 247 0 0 1-26.1 18q-.5-.2 1.1-2c1.8-2 1.7-2-1.3-2-3.5 0-5.9 2.7-9.1 10.3-8.4 19.5 3.8 44 23.5 47.5 4 .7 6.7.5 12.5-1l7.4-2 1.7 2.2c1 1.2 1.8 3.4 1.9 4.9 0 1.4.6 4.4 1.4 6.6 2 6 1.9.8-.1-8.5-2.2-10-2-21.8.5-30.5l1.8-7-4-3a25 25 0 0 1-8.7-16c0-3 0-2.9 2.1 1.3a44 44 0 0 0 13 13.2c.4 0 1.6-1.6 2.8-3.5s2.5-3.5 3-3.5 1.1-2 1.1-4.2a26 26 0 0 1 3.2-13.1c1-1.4 1.3.2 1.4 9.5.2 9 .7 12.9 2.7 19 1.4 4.3 2.1 7.8 1.7 7.8a56 56 0 0 1-7.6-15.4c-.7-2.9-.8-2.8-4 3.6a55 55 0 0 0-5.7 34.6q.6 5.3 1.4 4c1.7-2.6 2.9 1.6 2.8 10.2q0 8.3-.9 6.5c-.7-1.9-.8-1.8-1.3.5-1.2 5.5-1.7 11-1 11 .5 0 .9 4.2.8 9.3s.3 14 .7 19.7l.7 10.5-2-7c-1-3.8-1.9-9-1.9-11.2 0-6.2-2-5.3-2.1 1a94 94 0 0 0 3.3 27.2c1.6 7.7 3 16.3 2.9 19.2q0 5.1 1.4 6.6 2.4 2.6-1.7 2.7-3.4.2-.1 3.1c.9.8 2.7 3.9 4.1 6.9 4.7 10.5 4 28.5-1.4 36.5-3 4.4-3 4.9-.3 3.5 3.4-1.9 7.6-9.6 9-16.5 1.3-7.3.7-13.5-2.2-21-2.3-6-2.3-6.5-.5-6.5s4.4 5.6 5.9 12.5c.6 3.2 1.6 5.5 2.4 5.5 1.8 0 1.6 1.7-.2 2.4q-1.5.5-1.5 4.5c0 4.5 1.6 5.4 6.9 3.7 2.7-1 3.6-2 5-6.1 1.8-4.9 1.7-5.1-.2-9-1-2.2-4-7-6.3-10.7s-4.8-8.6-5.3-11c-1-4.7-3.4-43.8-2.7-44.6.5-.5 1.3 2.4 1.9 6.8q.4 2.3 2.1-5.4a70 70 0 0 0 1.4-21.5c-.6-15.7-.1-21.1 1.7-21.1 3.3 0 11.4-24 11.5-33.7 0-2.7.2-2.7-4.4-.8q-8 3.3 2.9-5.4c7.8-6.2 9-7.8 11-16.1 2.2-8.7 3.5-9.7 3-2.4l-.3 5.9 2.3-5 3.9-8.5 1.5-3.5-.5 5.5c-.7 7.2-5.6 17-11 22-4 3.7-4.2 4.1-5 11.7a75 75 0 0 1-9.6 31.1l-4.1 6.3 1.2 10c1.3 10.8.6 19.6-3 34.4-2.9 12.2-2 34.6 1.6 40l1.7 2.7 2.3-3.3c4.7-6.2 9-8.4 17.6-8.8 7.3-.3 8.2-.1 11.4 2.4a36 36 0 0 1 10.6 18.3c1.4 6.1 3 5.1 1.8-1.1-2.8-14.4.2-35.4 8-56.2 6-15.7 7.1-21 7.1-32.5 0-8 .6-12.7 3-22q3-12 3-19.7c0-5.6.3-7.4 1-6.3.9 1.2 1.6.8 4.5-2.5 6.6-7.6 10.4-22.7 7-27.9-1.3-2-2.3-2.5-3.9-2-4 1.2-8.3 3.5-10.5 5.5-1.7 1.6-2.5 1.8-3.6 1-1-1-2-1-3.4-.1q-2 1-2.1.1c0-1.7 5.3-4.8 12.3-7 3.7-1.3 6.7-2.5 6.7-2.9s-1-2.6-2.2-5.1a25 25 0 0 1-1-19.6l2-4 .1 7.6c0 4.2.6 9.1 1.2 11a34 34 0 0 0 11.5 15.4c4.5 2.1 6.8.9 16-8.7a84 84 0 0 0 18.8-28.3c4.4-13.9-1.8-29.5-13.9-35.1a19 19 0 0 0-16.1-.8M346 134q0 .9.9 1.5c.5.3 1.2 2.2 1.5 4.1s1.1 3.3 1.6 3q.8-.6 0-3.2c-1-2.5-1-2.5 2.4-1.9 2.5.5 3.5.3 4-.8q.7-1.6-3.2-2.2l-5.4-1q-1.6-.4-1.8.5m-109.6 5.5a24 24 0 0 0-14.2 12.4c-4 7.4-6.2 17.3-6.2 27.5 0 6.8-.3 7.9-1.3 6.2-.7-1.2-1.2-6.3-1.2-13.2V161l-5.6 6.6a50 50 0 0 1-19.5 15.4l-4.9 2 3.5-2.8c4.6-3.5 17-15.4 16.7-15.8-.2-.2-3.9.7-8.3 2l-16.2 4.7c-9.4 2.6-9.6 2.9-9.5 13.9a60 60 0 0 0 13.9 36.6l4.2 4.3 8.9-2.9c12.2-4 22.2-5.9 36.4-7a176 176 0 0 0 34.3-5.5c14.7-3.7 14.8-1.3.1 3.2l-5 1.6 8.9 1.8c4.9 1 9.4 2.3 10 2.8 1.5 1.6-6.7 1.4-16.5-.5a58 58 0 0 0-16.6-.9l-8.3.9 2.1 5.6c2.6 7 5.9 21.3 5.9 26.4 0 3.5.2 3.8 2.3 3.2 5.5-1.5 24.3-2.8 36-2.4l12.7.3v-2.9c0-1.5.8-7.5 1.7-13.2a41 41 0 0 0-.6-21.8c-1.4-6.6-2-12.2-1.6-13.6.6-2 .4-2.2-1.1-1.7-13.4 4.1-17.4 4.5-25 2.2-22.9-7-33.3-40-17.9-56.4l4.4-4.7-4.7-1.7a28 28 0 0 0-17.8-1.3m128.5 7.4c.5 1 3.1 3.8 5.7 6.2 6.5 6 7.1 3.3.8-3.1-4.9-5-8.4-6.6-6.5-3m15.3 4c-1.2 1.7-1.8 3.3-1.2 3.6.9.5 4.5-5.3 3.8-6-.3-.3-1.4.8-2.6 2.5m-29.2 1q0 1.1.7.7a1 1 0 0 0 0-1.4q-.7-.4-.7.7m38 7q0 1.1.7.7a1 1 0 0 0 0-1.4q-.7-.4-.7.7m-124 2.5c-1.2 1.5 3.2 3 14 4.5 10 1.5 12.6 2.9 12.3 6.3 0 1.5.2 2.7.8 2.7s.9-.7.9-1.6c0-1.2.7-1.4 3-.9 4.2 1 4-2-.2-4-1.8-.8-4.7-2.4-6.3-3.4s-5.7-2.3-9-2.6-8-1-10.2-1.5q-4.4-.8-5.3.5m111.1 8.7c-6.6 11.6-15.8 19.5-24 20.7-3.7.5-4.7 1-5 2.8-.2 2 0 2.1 3.4 1.2 2.5-.7 5.2-.7 9 .2l5.2 1.2-.2 12a51 51 0 0 1-2.8 19.9 99 99 0 0 0-4.3 30.7c1.1 5.7 2.1 19.1 2.1 28.6 0 11.7 1.6 15.4 3.6 8.3 1.2-4.6.7-19-1.2-32.8a83 83 0 0 1 4.3-35.8l3.1-8.5 1.9 3.6c1 2 2.9 5.2 4.2 7.1l2.4 3.5 3.6-3.6c4-4 4.1-5.3.2-2.7-1.5.9-2.8 1.5-3 1.3a35 35 0 0 1-6.5-17.2c-.8-7.2-.8-7.2-1.6-3-.4 2.4-1.1 4.3-1.6 4.3-1 0-1.2-7.7-.3-13.1.5-3.2 1.1-3.8 4.4-4.8a52 52 0 0 0 19-13.2c1.8-2.1 2.8-3.9 2.3-3.9s-3.5 2-6.8 4.6q-11.9 9-21.5 10l-5.4.7 6.8-6.3a35 35 0 0 0 11.7-17.8c.4-1.7.5-3.2.4-3.2s-1.7 2.4-3.4 5.3m-221.5 18.3c-7.9 5-10.7 6.4-13.8 6.4q-3.7 0-3.3-1c1.1-1.8-11.9-7-17.2-7-5.8 0-13.8 3.2-21.8 8.7-12.7 8.7-26.8 14.9-28.4 12.5-1.1-1.7-5-3.2-8-3.2-4.6 0-7.4 3.4-10.5 12.7a78 78 0 0 1-5.6 12.7c-5.4 8.5-7 12.4-7 17.2 0 4.9 2.6 12.4 4.4 12.4.5 0 2.2-1.5 3.7-3.2 3.6-4.4 4.6-3.1 1.3 1.7-1.8 2.7-2.2 4-1.4 4.9q2.7 2.6 6.5-6.5c1.2-3 5.4-10.3 9.3-16 11-16.6 17-20 39.2-21.9 17.8-1.5 25.7-3.2 40.5-8.6 1.6-.6 1.5-.2-.8 2.3l-2.8 3 3.8 1.9c2.7 1.3 6.3 1.9 12.3 2 4.7.1 10 .7 12 1.3s5 1.1 6.8 1.1h3.3l-3.5-6.2a57 57 0 0 1-7-26.5c0-4.2-.5-7.3-1.1-7.2-.5 0-5.5 2.9-11 6.5m133.7-5.9c-3.3.6-1.6 2.3 2.3 2.3 1.9 0 3.7.5 4 1 1 1.5 2.5 1.2 2.5-.5s-3-3.6-5.2-3.4zm-15 5c-4 1.9-7.1 3.7-6.8 4 .9 1 12.3-3.8 14.2-5.8 2.4-2.7 1-2.3-7.4 1.7m-134.5 3.1q.7 1.4 2.7.9l2.8-.6q.7 0 .8-1c0-.5-1.5-.9-3.4-.8q-3.6 0-2.9 1.5m147.3-1c0 .4.7 1.8 1.5 3 1.4 2 1.4 2.3-.2 3.2q-2 .9 3.6.6c3-.2 5.6-.6 5.9-1 .3-.2-1.3-1.2-3.4-2s-4.7-2.4-5.6-3.3-1.8-1-1.8-.6m-69.5 6c6.3 2.2 26 4.7 24.5 3-1-1-24-5.6-27.8-5.5-3.4 0-3.2.2 3.3 2.5m108.5 5.6a53 53 0 0 1-7.2 13.6 109 109 0 0 0-5.8 8.2c-1.2 2.3-1.3 7 0 9q1 1.6.8-1.5c-.1-4.8 1.2-7.7 5.9-12.8a31 31 0 0 0 8.8-18.5c.4-2.8.5-5.2.3-5.2s-1.5 3.3-2.8 7.2m-224 4.3q0 .5.5.5t.5-.5-.5-.5-.5.5m107.6 2.4q-.4.9 1.2 1.6c2.1.8 29.9 2 29.2 1.2-.6-.6-23-3.7-27.1-3.7-1.6 0-3 .4-3.3.9m-126 5.7c-5.8 2.1-7.4 2.3-9.7 1.3-3.4-1.3-9.2-.5-11 1.6-.9 1.2-1 2 0 3.8q1.5 3.3.7 0c-.7-3.7.6-4.4 6.7-3.7 3.1.4 5.7 1 5.7 1.4s2.6-.5 5.8-2l8.2-3.7c4.4-2 .7-1.2-6.4 1.3m293.8 24.9a18 18 0 0 0-2 6.7c-.4 4.7 0 4 2.7-4q3-8.5-.7-2.7m-62.4 1.4q0 1 1 1.6.9.5.4-1-1.2-2.6-1.4-.6M295.5 257c-1.1.5-10.6.9-21.2 1h-19.2l5.7 11.8c5.5 11.4 5.6 12 6.3 22.7.4 6 1.4 13.6 2.3 16.8 2 7 2 7.6.3 5.3-1.1-1.5-1.7-.3-4.2 9.6-3.8 14.8-4 29-.5 38.3 1.2 3.3 2.7 6.5 3.1 7.1.5.6 1 10.5 1 22 0 19.1-.3 21.7-2.6 30.4-4.3 16.4-3.9 17 12.6 17 8.5 0 13 .5 17.9 2 10 3 29 2.4 29-1 0-1.6-4.4-4-10-5.6-9.4-2.8-27-17.9-28.3-24.4-1.9-9 .3-38.5 3.3-46.6 1-2.6.8-3-2.3-5.9a27 27 0 0 1-8.2-11.8q-1.4-5.9-3.5 1.8c-.7 2.5-1.7 4.8-2.2 5.1q-.7.4 0-2.3c.3-1.5.7-6.4.7-10.9 0-6.2.3-7.7 1.1-6.6s1.2-.1 1.6-5.9c.8-11.9 7.7-22.6 15.7-24.4 1.7-.4 3.4-1.2 3.8-1.8s.5-6.5.4-13.1c-.1-9 .1-11.8 1-11a59 59 0 0 1 2.4 21.6c-.6 3.6-.5 3.8 1.9 3.8 1.3 0 2.7-.4 3-.8s-.7-6.2-2-12.7a259 259 0 0 1-5.4-29.8c0-2.9-.4-3-3.5-1.7m-24 22.4c.9 8.5 7.4 15.4 12 12.8 1.7-.9 1.7-1-.2-1.6-2.9-1-7-5.5-9.8-11.1l-2.5-5zm89 29.7c4.7 6.8 6 11.8 6 21.9 0 8.6 0 8.5-6.3 21.3q-.2.7 1.7-.2c3.2-1.8 7-9.2 8.3-16.2 2-11.2-2-24.4-8.8-29.8q-6.4-5.2-.9 3m-71.6.8c-8.2 8.7-10 25.3-3.8 37.2 2.1 4.3 8 9.6 11.4 10.5 6.7 1.7 14.1-7 16.6-19.2 1-5.3 1-7.1-.4-13-3.1-12.4-9-19.4-16.6-19.4-2.7 0-4.2.9-7.2 4m-17.9 7.5q0 .5.5.5t.5-.5q-.1-.6-.5-.5t-.5.5m69.3 12.4q0 3 1.4 2.4c1.6-.6 1.4-4.5-.3-5-.6-.2-1 1-1 2.6m-12.4 8.6q-1.2 1.5-.2 1.5c1.2 0 2.6-1.9 2-2.6q-.5-.2-1.8 1m-57.6 75a9 9 0 0 0 1 6l1.5 3.1-.6-5.5c-.7-6.6-1-7.1-1.9-3.5"/></svg>