<svg xmlns="http://www.w3.org/2000/svg" viewBox="0 0 512 512"><path fill-rule="evenodd" d="M260.7 52.4c-8.9 3.3-11.2 8.6-10.1 23.1l.7 9.4-8.7-.6c-10.3-.7-12 1.1-1.9 2 8.9.8 52.2 5.4 59.3 6.3 4.5.5 5.8.3 7-1 1.1-1.4.6-1.6-5.1-1.6a28 28 0 0 1-9.4-1.6q-4-1.8-.5-1c1.4.3 9.7 1.2 18.5 2.1 18.5 1.9 22.3 2.8 8.3 2-8.2-.5-9.7-.4-9.2.8.3 1 4.4 1.8 14.7 2.8 7.8.8 14.3 1.4 14.5 1.3q.2-.2-.4-1.7c-.3-.9-2-1.8-3.7-2s-.2-.2 3.4 0c4.7.3 6.8 0 7.6-.9 1-1.1-3-1.7-23.5-3.6L294 85.7l-3.4-.2.3-9.7c.3-12.1-1.5-18.7-6.2-22-2.6-1.9-4.7-2.3-11.7-2.6a37 37 0 0 0-12.3 1.2m3.3.5c-9.3 1.9-11 5-11 20.5v11.4l2.9.7c1.6.3 4 .3 5.5 0 1.4-.4 3.2-.3 3.9.3s5.8 1.3 11.4 1.7l10.1.7.8-5.8a72 72 0 0 0-.4-14.8c-1.5-11.7-3.6-14.1-13.2-14.9-3.6-.2-8-.2-10 .2m-38 31.2c-2 .5-7.5 1-12.4 1.2-8.6.3-9 .4-11.8 3.6s-3 3.7-2.3 9l.7 5.6-2.6-2.4c-3.4-3.2-10.5-3.9-17.9-1.7-4.8 1.4-5.6 2-5.9 4.3-.2 2-1 2.9-3.4 3.5q-7.2 2-5.4 7.4c1.3 3.3 2.6 4.4 5.8 4.4 2.9 0 3.7 2.3 4.6 12.5 1 10 5 22.7 11.2 34.2 5.3 9.9 8.3 13.6 12.5 15.3 2.6 1.1 3.3.9 7.7-2.4 5-3.6 11.4-10.2 14.4-14.6l1.6-2.5 1.2 3c4.3 10.8 3.5 25.7-1.7 32.2-6 7.6-5.8 6.5-6 25.7a116 116 0 0 1-2.1 26.6 30 30 0 0 0-1.2 10c.4.8 1 9.7 1.5 19.7.5 14.8.4 19.1-.9 23.5-.8 2.9-2 8.3-2.5 12a70 70 0 0 1-5.1 15.1c-4.7 10-8 22-8 29 0 2.8.7 8.7 1.4 13.1s1.6 12 1.8 16.8c.3 8.2.2 8.7-1.3 6.7-1.4-2-1.7-2-2.2-.4a32 32 0 0 0-.7 7.4c0 4.7.6 6.6 3.1 10.6 1.7 2.7 3.8 7.2 4.6 10s2.4 6.7 3.5 8.8 1.8 4 1.6 4.2-3.9 1.4-8.3 2.9a77 77 0 0 0-9.2 3.4c-1.7 1-3 25-1.5 27.9q1.2 2 7 3.6l29.3 8.1c13 3.6 25.4 6.6 27.5 6.5h3.9l-4-1.5c-2.2-.8-13.7-4.2-25.5-7.5l-28.3-8-6.9-2 .4-10.9c.1-6 .6-11.1 1-11.5.6-.6 48.4 10.3 107.2 24.5 12.6 3 16.4 3.6 18 2.8q1.8-1 1.1-1.4L276 461.6c-67.6-15.9-76-18-76-18.7 0-.3 1.3-1 3-1.2s4.6-1.4 6.7-2.3c2.7-1.2 5.9-1.7 10.8-1.5 8.3.3 19.6-1.4 23.6-3.5 2.5-1.3 2.8-1.7 1.8-3.5q-1-1.9-.7-2.5c1-1 23.5-8.6 25.3-8.6 1.1 0 4.9.5 8.5 1 3.8.5 7.7.6 9.7 0 3.5-1 7.3-5 7.3-7.8q.2-1.7 2.2-2.4c3-.7 18.4-.6 22.3.3 2.8.6 2.6.8-4 3.3a1086 1086 0 0 1-28.5 9.3l-41.1 13a404 404 0 0 1-23.4 7q-3.9.7-2.3 1.6c2.6 1.7 6.3.8 32.1-7.5l49.2-15.6 24.3-7.8q1.5-.6 1 2.8c-.2 2.6-.9 3.5-2.8 4.1l-80.5 25.3-8 2.4 5 .1c3.7 0 13-2.4 35.5-9.5l30.5-9.7 8.5.7 14.3 1.2c4.9.6 5.7.5 5.2-.8q-.6-1.6-6.6-2.2c-10.2-1.2-11-2-4-4l6.1-2v-10.9l9.7.7c14.3 1 51.2 4.5 55.5 5.2 3 .5 3.8.3 3.8-1q-.2-1.5-2.3-2c-2-.5-21.3-2.1-44.7-4l-45.4-4a41 41 0 0 0-8.7 1l-5.9 1.1-4-4.2a29 29 0 0 1-6.5-13.2l-4.6-14.6c-2.4-7.3-2.4-12.6.1-26.3 1.4-7.4 2-14.2 1.8-21.4a51 51 0 0 1 2.6-20c1.5-5.1 3-12.6 3.3-16.4s1.6-10.6 2.9-14.8a86 86 0 0 0 3-18 59 59 0 0 0-2-21.7c-1.9-8.4-2.3-11.8-1.5-12.7.8-1 .7-2.6-.5-6-1.4-4.2-1.4-5 0-9.5 1.6-4.7 1.5-5.1-.6-10.5a22 22 0 0 1-1.7-12.2c.3-3.8 1.3-8.7 2.3-11l1.7-4.3 2.1 2c3 2.8 7 2.7 9-.1.9-1.2 1.6-2.9 1.6-3.7s2.1-6 4.7-11.5l4.8-10.1.3-16.2.4-16.2 4.7-.6c7.7-1 9.1-2 9.1-6v-3.6l7.7.7L367 110c14.1 1.5 26.4 2.4 27.5 2 1.9-.7 1.8-.8-.5-1.4-4-1-24-3.3-55.5-6.6L295 99.5c-33.9-3.6-44-4.7-51.6-5.2l-8.2-.6-1.2-4c-1.2-4.3-2.7-6.8-3.9-6.6zm4 .4q0 .5.5.5t.5-.5-.5-.5-.5.5m-25.5 6c-2.1 2-2.5 3.3-2.5 8.9 0 3.6-.4 6.7-1 7-1.9 1.3-5.6-.6-7.3-3.6s-2-3-7.2-2.6a15 15 0 0 0-7.5 2.3c-2 1.8-2 1.8 1 5.2q6 6.7 0 10.1c-2.8 1.6-3 2-3 8.3a72 72 0 0 0 2 14.5c2.5 10 15 35.8 18.5 38 2.4 1.6 2.7 1.5 9.5-3.7 5.3-4 7.7-6.8 10.2-11.4 1.7-3.3 4.4-8 6-10.4s2.6-4.6 2.5-4.7-2.2.6-4.5 1.7q-4.2 2.1-6.7 1.5c-2.7-.7-2.5-2.6.1-2.6 2.5 0 8.7-3.6 13.6-8l4.7-4.1-1.5 5.3c-.9 3-2.9 7.6-4.4 10.4l-2.9 5.2 2.4 6.8a67 67 0 0 1 3 15.9c.5 5 1.2 9.8 1.7 10.8 1.3 2.5 8.5 5.6 15.4 6.7 4.3.7 8.3.5 17-1 15.2-2.6 15.4-2.7 15.6-9.8l.1-5.7.6 6c.5 5.4.7 5.8 1.8 3.8.7-1.2 1.3-4.6 1.3-7.5 0-4 .7-6.7 3.3-11.3 3-5.7 3.2-6.6 3.2-16.5 0-8.7.4-11.2 2.1-14.5 4.6-8.8 3.8-15-2.8-22-4-4.5-4.1-4.5-10.8-4.5-3.8 0-7 .5-7.2 1q-.3 1-3.8 0c-2-.6-8.2-1.7-14-2.6-8-1.1-12.2-2.3-17.7-5q-7.2-3.6-9.5-3c-7.4 1.9-13.4 9.6-14.5 18.6l-.6 5.2 4-2c5-2.6 13-4.5 15.2-3.7q1.4.7-5 3c-16.1 5.9-18.3 7-20.7 11.9l-2.3 4.5 5 6.2c2.8 3.5 4.9 6.4 4.7 6.7-.7.6-17.6-17-19.2-20.2a25 25 0 0 1-2.1-8.1l-.6-5.3 4-2a12 12 0 0 0 5.3-5.1q1.3-3.2 3.6-3.1 2.2 0 2.5-.3l.8-9q.8-8.8 2.2-9.9c.8-.5 5.4-.7 10.3-.5s10.2 0 11.8-.5c2.7-1 2.8-1.1 1-2.4-1.2-1-5-1.3-13-1.4-10.7 0-11.4.1-13.7 2.5m142.5 2c-.7.8-2 1.5-3 1.5s-2.3.7-3 1.5c-1 1.3-.6 1.5 3.3 1.5 2.5 0 5.7.4 7.1 1 2.4.9 2.6.7 2.6-1.5q.1-2.3 1.4-2.5 1.4 0 .8 2.5c-.4 2.4-.2 2.5 5 2.5 2.9 0 11.1.7 18.3 1.5l14.8 1.5c3 0 1.8-1.6-2-2.7-3.5-1-3.3-1 2-.5 4.7.4 5.7.2 5.7-1 0-2-2.1-2.5-12.7-3.4-7.1-.6-8.4-.4-8.9 1-.5 1.2-1.8 1.6-5.3 1.5l-4.6-.2 4-.6c7.8-1.2 4.7-2.7-8.2-4-16-1.4-15.8-1.4-17.3.4m1.3 2.2c1 .2 2.5.2 3.5 0s.1-.5-1.8-.5-2.7.2-1.7.5M210 96l-.6 5.2c-.6 3.6-.6 3.7 2.3 3.7 1.6 0 5.2-.7 8-1.5a24 24 0 0 1 19.5 3c3 2 5 2.5 10.2 2.5 3.5 0 9.9.7 14.2 1.6 8 1.7 15.6 1.4 19.4-.6 2.7-1.5 2.7-6.5 0-8a521 521 0 0 0-59.2-6.5c-11.3-.6-13.8-.5-13.8.6m150.8-.4c1.2.2 3 .2 4 0s-.1-.5-2.3-.4-3 .2-1.7.4m18.2.8q0 .5.5.5t.5-.5q-.1-.6-.5-.5t-.5.5m-92 9.4c0 3.7.2 3.9 3.8 4.5 2 .4 10.1 1 18 1.3 11.8.5 14.2.4 14.2-.8 0-.8.3-2.3.6-3.5.5-2-.2-2-16.3-3.7-22-2.3-20.3-2.4-20.3 2.2m-21.6-1.6c-.7 2-.2 4.8 1.1 5s1.9-4.3.6-5.6q-1-1.1-1.7.6m-55.5 4.9c-.8.7-2.3 2.5-3.2 4s-2.4 2.8-3.2 2.8-1.7 1-2 2-2.4 3-4.6 4c-3.4 1.8-3.9 2.5-3.9 5.6 0 2 .7 5 1.6 6.7 2.9 5.7 6.4 8.6 6.4 5.3 0-.8 1.5-3.7 3.4-6.5s3.7-7 4.1-9.3 1.4-6 2.2-8 1.3-4.6 1.1-5.8c-.3-1.8-.5-2-1.9-.8m-39.7.9q-2.4.8-2 3.1c.3 2 .9 2.3 5.8 2.3 4.6 0 5.5-.3 5.8-2 .8-3.6-4.4-5.5-9.6-3.4m116.8 4a13 13 0 0 0 3 4.2c2.8 3.2 3 3.2 3 1 0-3.4-1.8-6.2-4-6.2q-1.8 0-2 1m9 3.8c0 2.2-.5 4.2-1.1 4.4q-1.2.4.5 3.5c2.2 4.4 2 8.6-.7 16.5-2 5.8-2.2 7.3-1.3 11.7.7 3.8.7 6.7-.3 11.3-1 5-1 6.2 0 7 2.7 1.6 4.9.8 5.4-2 .3-1.5 2.6-6.7 5-11.7 4.5-9 4.6-9 5.5-23.5.5-8 1.2-15.5 1.5-16.6.6-2 .2-2.3-3.7-2.9l-7.5-1.2c-3.3-.5-3.3-.5-3.3 3.5m-60.6 6.3c-1.8 2-1.8 2 .8 1.4 1.4-.4 3.5-.2 4.6.4 2.6 1.4 3.6.2 1.5-2q-3.2-3.7-6.9.2m2.6 7.8c0 2 3.6 8.4 6.2 11.2 4 4.3 16.6 6.2 25 3.8q3.8-1 5.4-4c2.4-4.8 1.1-5.5-2.6-1.5-3.3 3.5-3.6 3.6-10.7 3.6-9.5 0-14.3-2-17-6.8-2.5-4.3-6.3-8.2-6.3-6.3m39 10.6q0 2.5 6.8 2.5c4.7 0 3-2-2.7-3q-4.3-.8-4.1.5m.1 8.4q-1.1 1-.7 2c.4.6.7 3.7.7 6.8 0 4.6-.7 7.1-3.6 12.9-2.8 5.4-3.6 8-3.3 11l.4 3.9 1.3-4.5c.7-2.4 2.5-6.7 3.9-9.5 1.4-2.9 3-8.4 3.7-13l1.1-8 1.9 3.2c2.7 4.6 4.8 5 2.3.5-2-3.5-4.5-6.2-5.7-6.2a6 6 0 0 0-2 .9m-34.6 2.2c-1.6 1-3.8 1.9-4.7 1.9s-1.8.5-1.8 1c0 .7 1.4 1 3.3.9q3.4-.3 6.2 1.9c3.8 3 5.7 2.7 2.1-.4-2-1.8-2.7-3.1-2.3-5l.3-2.3zm24.8.7a28 28 0 0 1-6.4 4.6c-3 1.4-4.2 3-6.7 8.7-1.7 3.8-2.7 6.9-2.2 6.9 1.6 0 5-5.2 5.6-8.6.5-2.7 1.5-4 4.3-5.4 5-2.7 11.9-9 9.8-9-.8 0-2.8 1.3-4.4 2.8m-27.7 8.3c-1.3 2-1.9 2.1-4 1.1q-4.2-1.6-1.4 1.6c.7.7 2.7 1.2 4.6 1.2s4.7.7 6.5 1.6l3.2 1.7-2-2.4-3.7-4.7-1.6-2.3zm42 31.8c-1.6 2.5-6.9 4-18.6 5.6-14.3 1.9-22.7 1-30.8-3q-4.6-2.3-5-1.4c-.3.6-1.7 2.6-3.3 4.3-4 4.7-4.9 7.6-5.6 19.7-.4 8-.3 10.9.5 10.9 1.8 0 1.5 4.3-1 16l-2.2 10.3 2.4 1.6c4.8 3.3 16.5 7 22.1 7q17 .4 16.9-12.4c0-4.6.4-5.5 3.8-8.8 2-2 4.1-3.7 4.5-3.7 1.6 0 .5 3.2-2.3 6.3-2.6 3-3 4.3-3 9v5.7h7.8c8.2 0 16.3-2 19.5-4.9 2.2-1.8 1.9-6-1.4-19.5-1-4.5-1.9-10-1.9-12.4s-.5-5.2-1-6.4c-1-1.5-.7-3.1 1-7.3 2-5 2-5.5.5-8.5-1-1.8-1.5-4-1.2-5 .6-2.3-.8-4.7-1.7-3.1m.5 68.3c-5 1.8-11.3 2.2-23.8 1.6q-7-.4-4.5 2.4c.7 1 .7 3.1 0 7.2-.9 5-.8 6.4.7 9.5a57 57 0 0 1 2.6 17.1 106 106 0 0 0 2 16.4c1.2 3.7 1.2 3.6-.6 3.6-1.1 0-1.5 1.2-1.5 4.4q0 4.3-2.1 7c-3.3 4.2-3.7 13.3-1 22.3 1.3 4 2.4 10.2 2.4 13.8s.3 6.5.5 6.5l2.3-1c2.2-1.3 2.5.4 1 5.9-.6 1.9-.7 4-.2 5s1.1 3.3 1.5 5.4c.5 2.9.4 3.7-.8 3.7-1.7 0-3.8-5.6-4-11l-.1-3.8-2.7 2c-3.2 2.2-6.8 7-6.8 9q0 3.3 10.3 8.3c6.3 3 8.7 5.9 11.2 13.2 1 3 2.1 3.9 7.1 5.9 7.5 3 9.1 3 13.1-.4 4.2-3.5 3.6-6.3-2.2-9.7-4-2.3-4.5-3-5.5-8.3a137 137 0 0 0-4.2-14 56 56 0 0 1-2.4-31.1c1.1-3.9 1.6-9.4 1.6-19.2s.4-15 1.5-18a78 78 0 0 0 4.5-23c0-6.4-.6-7-3.6-3.8q-4.4 4.9-6.4 2.4c-1-1.2-.8-1.6 1.4-2.5a9 9 0 0 0 4-4.2l2.6-6.3 1.3-3 1.5 3.5 1.5 3.5 1.4-3.5a63 63 0 0 0 2.2-18.9zm-64.7 7.6c-.4 3.7-.2 10.8.5 16.2.8 6.9.8 10.6 0 13.1l-2.9 13.1c-1.2 6-3.2 12.3-5.4 16.7a63 63 0 0 0-6.3 45.7c.9 5.5 1.9 13 2.2 16.7q.6 6.7 1.8 6.5c.7-.1 1.3 1.3 1.5 3.3l.2 3.5-1.7-2.8q-1.7-2.7-3.5-2.4-1.7.4-2.1-.7t-2.3.6c-1.7 1.6-1.5 2.3 5 16 3.7 7.9 7.6 15.1 8.5 16.1 3.3 3.4 28.5 3.1 30.6-.3.3-.5-.4-1.9-1.6-3-2-2.1-2.1-2.1-4.2-.3-1.9 1.5-3.6 1.8-11 1.5-6.2-.2-8.7-.7-8.4-1.5.5-1.7 12.8-2.2 13.8-.6q.8 1.1 2.3.6c1.7-.7 2.2-2.7.6-2.7q-2.1 0-5-11c-1.9-6.6-6.4-19.3-7.8-22a44 44 0 0 1-1-10.2c-.2-7.7.3-10 3.3-19 2.3-6.5 3.5-12 3.5-15.3a85 85 0 0 1 10.5-36.1c1.4-2.3 2.9-5.9 3.4-8s2-6.4 3.1-9.4a51 51 0 0 0 4.8-20.5l-.3-5h-8c-6-.2-9.8-.9-15.1-2.9l-7.7-2.6c-.3 0-.9 3-1.3 6.7m9.9 1.8q0 3.5.4 1.7.5-2.6 0-4c-.5-1.4-.5.1-.4 2.3m21.4 19.5c-2.1 4.4-3.7 9-3.7 11s-1.6 6.8-3.6 11a80 80 0 0 0-9.9 31.4 113 113 0 0 1-4.5 21.1c-4 11.3-3.6 17 2 34 2.1 6.6 4.4 14 5 16.3 1.3 4.9 5.5 8.2 10.5 8.2 1.7 0 7.9-1.6 13.8-3.4 8.2-2.5 10.5-3.5 9.5-4.4a41 41 0 0 1-4.7-7 19 19 0 0 0-7.5-8.2c-5.8-3.2-8.4-5.8-9.1-9.1-1-4.4.3-8.3 4.2-12.8 3.4-4 3.5-4.4 2.9-9.9a150 150 0 0 0-3.3-15.2c-3-11.2-2.7-17 1.2-22.7 2.5-3.7 2.5-4 2.4-22.8 0-10.4-.4-20.4-.8-22-.6-2.9-.8-2.7-4.4 4.5m16.3-6.5q0 .5.5.5t.5-.5q-.1-.6-.5-.5t-.5.5m16 1q0 .5.5.5t.5-.5q-.1-.6-.5-.5t-.5.5m-15 1q0 .5.5.5t.5-.5q-.1-.6-.5-.5t-.5.5m-35 2.7c-3.5 1-6.4 2.8-5.7 3.5.2.2 2.7-.2 5.6-.8q5-1.1 5.1-2.5c0-1.6-.2-1.6-5-.2m35.6-.3q-.4.9.9 1.4 1.4.6.8-.9-.8-2.4-1.7-.5m1.4 8.2c0 2.2 4.2 6.9 6 6.9 2.6 0 2.5-.6-.6-4.7-2.4-3.2-5.4-4.4-5.4-2.2m-45 3.4c0 1 1.7 3.5 3.9 5.6 4.3 4.4 8.4 5.1 10 2s1.4-3.3-1.9-2.6q-5 1.3-7.3-3.6c-1.5-2.9-4.7-3.8-4.7-1.4m45.7 7.2c-1.3 1.2-.7 7 .8 8.3q3.3 3 2-4.5-.8-6.3-2.8-3.8m-47.3 8.5c.7 3.4 2.3 5.8 4 5.8q1 0-.2-1.2c-.7-.7-1.2-2.7-1.2-4.5q0-3.5-1.6-3.3c-1.3 0-1.5.6-1 3.2m42.7 15.5a70 70 0 0 1 1 12.3l.1 8.5 1.4-4.5q1.5-4.5.9-11c-.8-7.6-1.3-9-3-9q-1.4-.2-.4 3.7m-46.5-.5-1.6 8.3c-3.4 16.8-4 20.4-3.4 25.5.3 3 .8 6.6 1.1 8 .6 2.2.7 2 1.4-1.5.4-2.2.8-7.4.9-11.5s1-10.9 2-15c2.1-8 2.6-16 1-16q-.8.2-1.4 2.2m-7.3 4.6c-1.9 1.2-5.2 12.6-6 20.1-.5 6-.3 7.1 1 7.1 1 0 1.5-1.7 2-7.3.3-4 1.5-10.1 2.6-13.7 2.1-6.8 2.2-7.3.4-6.2m56.4 22c-.8 1.4.5 13.2 1.4 12.6 1.2-.7 1.2-13.4 0-13.4q-1 0-1.4.7m4.3 28.5c1.9 8 3.1 11.7 4.5 12.8 2 1.6 1.9.5-.5-7.3-2.2-7-5.4-11.5-4-5.5M212.6 405c-1.6 16.3-1.6 16.2 2 13.6q2-1.5.8-2.6-1.2-1.3-.7-7a20 20 0 0 0-.5-7.6c-.8-1.5-1.1-.8-1.6 3.6M337 431c1.1 2.1 1.7 2.2 8.2 1.6q6.9-.6 6.3.4-.5.9.2 1l22.8 2.5c26 3 25.5 3 25.5 1q-.1-1.4-1.2-1.5c-2 0-55-6-59.1-6.6-3.8-.6-3.8-.5-2.7 1.6m-14 43.5q-1.1 1.4-.4 1.5c.5 0 6.8 1.4 13.9 3 33 7.8 39 9 43.4 9 4.4-.2 4.5-.2 1.6-1.1l-28-7-27.1-6.4q-2.1-.3-3.4 1"/></svg>