<svg xmlns="http://www.w3.org/2000/svg" viewBox="0 0 512 512"><path fill-rule="evenodd" d="M261.5 29a26 26 0 0 0-13.3 11.2c-2.5 3.8-2.7 5-2.6 13.2 0 5 .3 11.6.5 14.7.3 4.8 0 6.2-2.6 10.4-2.6 4.1-4.2 5.5-11.2 9-4.5 2.2-10 5.6-12 7.6s-5.5 4.6-7.6 5.9a24 24 0 0 0-10.7 15.8 109 109 0 0 1-2.5 10.2 63 63 0 0 0-1.5 27.9c1.5 15.7.7 21.3-4 31-3 5.7-7.6 10.3-16.7 16.5a51 51 0 0 0-16.6 19.4c-2.8 6-3.2 8-3.7 18.2-.5 11.5-.5 11.5-5.3 20.3-4 7.3-4.8 9.4-4.3 12.1.4 2 0 4.7-.8 6.7-1.5 3.7-3 11.8-4.1 21.3a56 56 0 0 1-15.4 32.4 55 55 0 0 0-16.5 37 230 230 0 0 1-12 54.3c-1.3 3-4 8-6 11.3-6.4 10.5-4.4 17 6.4 21.2 2.5 1 5.9 2.8 7.6 4s6.4 3.7 10.4 5.4 9.6 4.8 12.4 7c7 5.3 9.3 6 19.8 6s16.2-1.4 18.9-4.8q6.3-7.8-7.9-12.4a36 36 0 0 1-6.9-3c-.7-.5-3.7-5.1-6.8-10.3-4.7-7.9-5.5-10-5.5-14.2 0-9 3.4-16.9 17-38.6a202 202 0 0 0 18.7-35.7c1.3-3.6 4-8 5.7-10a43 43 0 0 0 10.5-16.1c1.4-4 3.6-7.2 8.7-12.4a74 74 0 0 0 11.4-15.2q4.5-8.2 6.3-8.3 1.7 0 4.3-5.8c4-8.9 15.1-43.3 17-52.4 2-10.1 4.7-18 7.2-21.6 1-1.5 3.5-5.9 5.5-9.7s6.4-10.9 10-15.7a54 54 0 0 0 11.8-21.4 20 20 0 0 1 3.6-7.5 34 34 0 0 0 6.3-15c0-2.3-.6-2.4 10.5.5 3.3.8 9.5 1.5 13.7 1.6h7.8l.2 137.1.3 137.1 18.5 10 28 15 26.9 14.5c9.6 5.2 18 9.2 18.7 8.9 1.2-.5 1.4-36 1.2-223.3-.3-197.3-.5-222.8-1.8-222.8s-1.6 25.4-2 220.6l-.5 220.7-25-13.6-42.8-23.1-17.8-9.6V292.8l.1-135.3c0-5.4 0-5.4 2.6-4.5a87 87 0 0 0 28.1-.4c7-1.5 16.4-5.3 31.1-12.4 10-5 10.8-5.5 13.5-10.6 1.9-3.7 2.1-6 2.3-23 .3-14.8 0-19.4-1-20.6a11 11 0 0 1-2-3.5c-.6-1.9-4.7-4.5-7-4.5-.6 0-2.5 1.5-4.3 3.4-2.4 2.7-3.5 5.3-4.8 11.5-1.1 5-2.3 8.1-3 8.1-1.9 0-2.4 2.2-3 12l-.4 8.5-6.6.3q-6.5.3-14.2-1.9c-5.4-1.5-9.5-2-14-1.7l-6.3.4.6-3.2c.8-4.4-.3-7.4-2.7-7.4-1.8 0-2-.6-1.7-6.8.2-7.6-2-12.6-5.5-11.8q-1.7.5-1.8-1.7l-.2-31.2c-.2-25-.4-29-1.7-29s-1.5 4.6-1.8 34.4c-.2 27-.5 34.8-1.6 36a28 28 0 0 0-2.6 8l-1.3 6.3-4-.6a10 10 0 0 1-6.9-4 35 35 0 0 0-18.1-10.8c-6.7-1.4-6.7-2.7 0-2q4.7.3 6.6-1a60 60 0 0 0 7.7-24.3c0-2.8.4-6.5 1-8.4a38 38 0 0 0-3.5-21.7c-4.1-7-14.7-12.4-24.5-12.3-2 0-5.7.9-8.5 2m2 3.5c-9.6 3.5-15.2 13.4-14.1 25 .8 8.7 2 11.4 4.5 10.7 1.2-.3 2.9-.2 3.8.2 1.6.6 1.6.8-.3 1.5q-2 .9-4.3 7c-1.3 3.4-2.5 6-2.7 5.7s0-1.5.4-2.8c1.6-4.3 2.3-7.9 1.5-7.9-.5 0-2 2.4-3.6 5.4-3.7 7-6.8 9.8-15.2 14a47 47 0 0 0-11.5 8 20 20 0 0 1-5.7 4.6c-2.2 0-7 4.8-8.8 9-2 4.6-1.4 6.2 1.5 3.5q4.5-4-1.5 4.8c-4.8 7.3-7 16.3-6 25.2 2.4 22.2 1.4 31.3-4.4 42-3 5.8-2.8 6.5 2.5 6.5s14.4-25.3 14.4-40c0-7.2 1.7-18 4-26.5a84 84 0 0 1 9.6-19.2c.2.2-1 4.1-2.6 8.6-3.7 10.3-3.7 11.2 0 7.6 4.8-4.6 4.3-2.5-1 3.9-5.7 7-7.2 12.8-7 27 .2 5.2 0 9.8-.2 10.2-.3.5-1.3 3.6-2.3 6.9a53 53 0 0 1-9 18.3c-2.8 3.4-2.7 3.6 3 4.7a53 53 0 0 1 26.1 14.9l7.4 7.4 1.9-2.7a45 45 0 0 0 8.2-26.6l.1-8 1.4 4.5a21 21 0 0 1 1.1 7.3c-.2 1.5 0 2.7.2 2.6a61 61 0 0 0 6.7-8.2c6.5-8.7 13-24 10.7-25.5-.6-.4-1-2.6-.8-5s0-4.2-.3-4.2c-.4 0-1.8 1.6-3.1 3.6-6.3 9.2-30.1 27.6-34.1 26.2-.6-.2 3.6-3.9 9.1-8.3q18.3-14.4 26.7-28.6l4.3-7.1-3.8-3.4-3.8-3.4 4 1.6c2.2.9 7.6 3.6 12 6a54 54 0 0 0 28.6 7.4c5 0 10.4.6 12.8 1.5 3.4 1.2 6.6 1.3 17.4.6 7.2-.5 15-1.6 17.2-2.4 10-3.7 31.2-14 32.7-15.8 1-1.2 2.3-4 3-6.2a193 193 0 0 0 1.6-35.7c-.4 0-1.2 2-1.8 4.2l-2 6.8q-1.3 3.4-.5-1l1-10c1-9.3-1-6.7-3.5 4.5-1.5 7-1.8 8-1.6 4 .4-5.4 1.2-10.7 2.1-13.5q.4-1.7-.3-2.4c-.8-.5-2.2 3.9-5 16.4l-1.1 4.5.4-5c.2-2.7.7-6.5 1.1-8.4q.7-3.3-.3-2.8c-1.1.7-2.8 8-4.3 18.6-.6 4-1.5 8.2-2 9.2s-1 3-1 4.4c0 2 .8 3 4.2 4.4l4.3 1.8-12.5.6a58 58 0 0 1-21-1.5 43 43 0 0 0-16.2-1.3c-7.4.6-8.1.5-14.3-2.6a42 42 0 0 0-11.5-3.7c-4.6-.4-5-.3-5 1.7 0 1.1-1.2 2.8-2.6 3.8-2.4 1.5-2.4 1.8-.8 2.3 1 .4-.6.6-3.4.6s-5.2-.4-5.2-.8c0-.3 2-1.4 4.5-2.5s4.5-2.2 4.5-2.8c0-1.4-3.8-7.5-6.4-10.3-2.6-3-10-6.7-14.6-7.6-2-.3-6.9 0-11 .8s-7.7 1.3-7.9 1 1.3-1 3.4-2l3.8-1.5-4.9-5c-5.8-5.9-4-6.5 3-1 6.2 4.9 7 4.1 6.4-6l-.4-7 1.7 3.3c2.1 4.1 7 7.8 10.3 7.8 2.3 0 2.8-.8 5.4-9.2 3.8-12.1 5-26.9 2.7-34.6a23 23 0 0 0-30-14.6m-19.2 58c-5 2.4-12.3 9.3-12.3 11.6q.2.8 2-1c3-3.2 8-6.8 14-10.2 6.6-3.6 3.6-4-3.8-.4m77.3 4.7-1.5 6.2-1 4 .4-3.8c.5-5.2-1.2-3.6-2 1.8-.4 2.5-1.1 4.5-1.6 4.5q-.8.2-.9 2.4c0 1.8 1 2.7 4.6 4 2.5 1 4.7 1.7 4.8 1.5s.6-5.1 1-10.9c.7-10.8-.3-12.5-2.3-4-1 4.4-1 4.4-.5-1.8.5-6-.1-8.4-1-4m-81.1 13.2c-3.7 1.6-5 3-6.4 7.9-2 5.8-.7 6.7 2 1.3 1.3-2.6 3.8-6 5.7-7.7q5.5-4.7-1.3-1.5m87 5.7c-1.3 2.3-1.4 3.4-.5 4.3 1.4 1.4 3-.9 3-4.6s-.6-3.5-2.6.3M212 116.8a42 42 0 0 0-3.6 15c.2.3 1.1-2.2 2-5.4s2.2-7.6 3-9.7q2.4-7.2-1.4.1m95 9.2q.1 1 1.3 1c1.7 0 6.7 2.3 6.7 3.1 0 .4-2 1.9-4.3 3.4-3.7 2.3-3.9 2.5-1.2 1.8 4-1 10.4-1 13.5 0 2.4.8 2.4.7-.5-1.7a73 73 0 0 0-14.9-8.6q-.5.1-.6 1m30.7 7c-2.7 1.5-4.4 3-3.8 3.4 1 .7 15-2 16-3 .3-.4-1.6-.3-4.3 0-4.5.7-4.9.6-3.7-.8q3.4-4-4.2.4M234 133q0 1.1.7.7a1 1 0 0 0 0-1.4q-.7-.4-.7.7m15.6 4q-13.4 6.4-13.6 10.4c0 .5 1 0 2.2-1s4.7-3 7.7-4c3.1-1.1 7.4-3.7 10-6.1a25 25 0 0 0 4.1-4.2c-.3 0-5 2.2-10.4 4.8m111.9 1.6-5.4 1.5c-2.4.6-4 1.4-3.8 1.6.5.6 11.6-2.1 12.5-3 .6-.6-1.7-.7-3.3 0m-129.7 3.9c-.9 1 .1 11.8 1.3 13q.9.7.8-2c-.1-5-1.4-11.7-2-11m33.2 28.3q0 4 .8 1.7c.7-1.8.4-5.5-.5-5.5-.2 0-.4 1.7-.3 3.8m-5.8 5.2c.4 1.4.7 4 .8 6 0 2.9.2 3.1.9 1.5 1.4-3.3 1.1-7.2-.7-8.6q-2-2-1 1.1m-42.1 12.5c-3.4 2.5-6.2 5-6.2 5.5 0 1.3 2 .3 6.9-3.4 3-2.2 6.8-6.6 5.9-6.6-.2 0-3.2 2-6.6 4.5m-27 9.8q-3 2.7 1.6 2.7a70 70 0 0 1 24.2 6.7c5.5 2.6 9.6 5.7 15.3 11.5 4.3 4.3 8 7.8 8.3 7.8s.4-1.2.4-2.7c0-5.2-10.3-15.8-20-20.8-9-4.6-27.3-7.8-29.9-5.2m-9.6 7.3A41 41 0 0 0 161 239c0 6.7.8 8.4 4.3 10l3.2 1.5-3.5.3c-3.3.3-3.8.8-8.2 9.1a130 130 0 0 0-4.8 9.4c0 .4 5.4 1.3 11.3 2 1.3.2 3-2.2 6.4-9.6l4.6-9.7-1.3-5.4a34 34 0 0 1 2.4-23c3.7-6.3 4.8-6.5 2.5-.6a41 41 0 0 0-.3 23.2c1.5 4.4 1.6 4.6 6.5 5.2q12.6 1.7 1.4 2.6l-7 .5-4.7 8.5c-2.6 4.7-4.8 8.7-4.8 9s2.2.6 4.8.7c5.6.2 15.4 3.3 23.4 7.6l5.8 3 4-2.7c4.2-2.7 4.3-2.6 4 2.9 0 3.5.4 4.2 4.7 7.2l3.2 2.3 3-7.8a505 505 0 0 0 13.7-43.5l2.5-9.8-3.2-5a54 54 0 0 0-36.9-22.4c-12.5-2-12.9-2-17.5 1.1m-30 75.7c-1.4 4.6-3 12.5-3.6 17.7s-1.9 11.5-2.9 14.2c-2 5.2-1.7 5.7 1.4 3l2-1.7-1.9 3c-1 1.7-5.8 7.6-10.8 13.2-16 18.2-18.5 23.3-19.7 40.1-.5 6.7-2.2 17.5-4 25.2-5.4 23.7-7.8 30.3-15 41.7-3.9 6.1-3.9 9.4 0 12.7 4.1 3.4 5 3.3 5-.7q0-3.3 4.5-10a95 95 0 0 0 12.4-25q8.6-24.7 10.6-41c1.7-14.9 6.4-24.3 20-39.8 5.2-5.8 9.2-17.8 10.9-32a114 114 0 0 1 5.6-25c0-1.1-3.2-2.4-8.1-3.3l-3.7-.6zm18.2-1c-3 8.2-3.7 11.3-5.1 23.4a92 92 0 0 1-3 16c-2.2 5-1 5.5 2.6 1.3l3-3.5-1.6 3.3c-1 1.8-4.5 6.4-7.9 10.3-17.7 20.3-22.5 28.9-23.4 41.6-.8 12-10.8 44.7-18 58.6-.8 1.8-3.4 5.8-5.5 9-7.5 11-6 15.4 7.2 20.8a63 63 0 0 1 12.7 7c6.1 5 10.9 7.1 15.3 7.1 13.6 0 15-.2 15-1.7 0-1.8 1.7-2 2.3-.2.4 1 .7 1 1.7 0s1-1.5.1-2.7q-1.7-1.7.9-.9 2.2.7 1.5-.9c-.3-.7-3.9-2.4-8-3.7-7.3-2.2-7.5-2.4-11.8-9-8.8-13.2-9.7-15.3-9.7-21.7 0-3.2.5-7.7 1.1-9.9 1.6-5.9 8-18.2 16.4-31.6a206 206 0 0 0 23.1-48.1c2-6.3 3.7-8 2.4-2.3-.4 2-.4 3.5 0 3.5 1.8 0 8-9.6 9.6-15.2 1.5-4.8 2.7-6.8 6.1-9.7 4.8-4 11.2-12.5 16-21.3l3-5.8-2.7-2a7 7 0 0 1-3.2-5.6l-.3-3.6-2.7 2.1-2.7 2.2-6-3c-7.7-4-20-8.1-23.9-8.1-2.5 0-3.1.6-4.5 4.3M172 323c-2.4 9.7-2.2 12.7.6 6.4 1.5-3.6 3.2-15.4 2.2-15.4-.2 0-1.5 4-2.8 9m-22-2a38 38 0 0 1-1.8 5.4q-.4.8.6.2c1.4-.8 3.5-7.2 3-8.9-.3-.6-1 .8-1.8 3.3m6 47c-1.2 2.3-4.7 7-7.7 10.6s-5.3 6.8-5 7c1.2 1.2 9.7-8.7 12.7-14.6 3.5-7 3.6-9.2 0-3m-29.5 57.5c-4.6 8.2-6 12.8-4.6 16.3 1 2.7 1 2.7 1-.8.1-3.2 1.3-6.5 6.5-18.2 2.5-5.8 1-4.5-3 2.7"/></svg>