<svg xmlns="http://www.w3.org/2000/svg" viewBox="0 0 512 512"><path fill-rule="evenodd" d="M144.5 10.3c-.4 1.4-2.4 285.7-2.5 357.2 0 27.5-.3 58.1-.6 68l-.7 18-11.8 6.3a41 41 0 0 0-11.9 7.7q0 1.4.5 1.5c1 0 26-13.4 26.6-14.2.3-.5.9-53.6 1.2-118l1.4-220.6.6-103.4 2.1.5c1.2.3 15.8 5.4 32.6 11.5s32.5 11.6 34.8 12.3c3.6 1 4.2 1.6 4.2 4 0 1.4 1.6 5.5 3.5 9.1s4.1 9.9 5 14 2 8.9 2.6 10.8c1.3 4.5-.5 13.2-6.2 30a49 49 0 0 0-4 21c0 4.7.7 11.4 1.5 15a44 44 0 0 1-2.6 25 94 94 0 0 0-8 28.3c-1 9-1.5 10.6-4 13.3l-3 3.2 1.1 8.3c.6 4.6 1.8 15.3 2.6 23.8a96 96 0 0 0 6 30.7c1.4 3.6 2.5 8.1 2.5 10s.5 3.6 1.1 4c2 1.2.4 17-2.5 25.1a50 50 0 0 0-2.6 9.1c0 1-1 3-2 4.5-3.1 4-6.8 12.7-7.5 18-.8 5.5-2 6.4-9.8 7.7a44 44 0 0 0-21.4 9.4c-2.6 2.3-8.2 6.6-12.4 9.5-12 8.2-11.5 6.8-10.1 23.4 1.1 14.8 2.3 19.6 10 41.7a90 90 0 0 1 4.4 16l.3 4.4-6 3.5c-9.7 5.7-11.7 7.4-11 9.4q.8 1.6 2 1.7c1.2.1 1.5.7 1.9 1.5s1.8 1.5 3.2 1.5 4.2.5 5.9 1.1c2.6 1 3.8.9 7-.6 3-1.5 3.8-1.6 4.5-.5.5.7 2.3 1.3 4 1.3 2.5 0 4-.8 6-3 3.3-4.1 6.6-4.8 12.8-2.8 5.3 1.8 9.2 1 9.2-2 0-1.8-7-8-11.9-10.4-2.2-1.2-4.2-2.5-4.5-3s-1.4-4.7-2.3-9.3a137 137 0 0 1-1.5-26.8v-18.5l4-.7c4.8-.8 10.4-3 14-5.7 2.7-1.9 3.1-2 7.8-.5q5 1.5 11.6 1.1c5.7-.4 7-.1 8.4 1.5a63 63 0 0 0 17 8.8c1.9 0 1.8 2.4-.1 4a5 5 0 0 0-1.5 3.5c0 2.8 2 8.6 3.5 10.5.7.8 1.6 3.5 2 6 1.2 6.9 4 12.6 9.2 18.1 5.5 5.8 9 7.9 13.3 7.9 8.3 0 18.2-11.2 22-25 .7-2.5 2.1-6.3 3.1-8.6 2.3-4.9 2.5-11.7.4-13.4-.8-.7-1.5-2.7-1.5-4.5 0-3 .7-3.8 6-7.3 5.7-3.9 6-4 11.2-3 3.6.7 7 .6 11-.2 5.4-1 6-1 9.6 1.4 2.1 1.3 5.8 3 8 3.7 4.1 1.2 4.3 1.4 3.5 4.3-.4 1.7-.7 9-.5 16.1.3 12-.7 21.9-2.9 30.5-.6 2.7-1.9 4-5.1 5.8a54 54 0 0 0-7.8 5.3c-2.9 2.4-3.3 3.2-2.4 4.7q1 1.7 5 1.5c13.1-.7 12.2-.9 15.8 3 3.8 4.2 8.7 5 10.5 2 1-1.7 1.1-1.7 4 0 3.1 1.8 7.6 2.3 8.5.8.3-.5 1.5-.7 2.6-.4 2.4.6 7.8-1.7 8.5-3.6s-2.4-4.9-10.7-9.6c-7-4-7.3-4.2-7-7.6.2-1.9 2.8-10.8 5.8-19.9 5.9-17.4 8-26.7 9-41l.7-9-7.5-7.2c-4-4-8.2-8.5-9.2-10-1.9-3-11.3-8.2-16.6-9.3-2-.4-5.5-2-8-3.4s-5.8-3.2-7.4-3.7a8 8 0 0 1-4-3q-6.1-10.6-15.7-19.9-14.1-13.4-15.4-26c-.6-5.6-.5-6.7 1.4-9 1.2-1.6 2.1-4 2.1-5.7s.9-4.1 2-5.6c3-4.1 6.7-22.7 7-34.8 0-5.7.7-15.2 1.5-21.1l1.3-10.8-2.7-3.5c-2.3-3-3-5.2-4-13.5-.8-6.3-2.7-14.3-5.2-21.5-5.2-15.5-5.5-18.4-3-30.7 2.8-13.4 2.7-20.4-.3-29l-6-16.3a89 89 0 0 1-5.7-22.5c.1-.5.4-9 .6-19l.4-18.2-2.5-2.4c-3.3-3-13.2-3.9-19-1.5q-3.8 1.6-4.2.6c-1.3-3.8-17.8-5.6-23.2-2.5-1.4.8-4.4 1.4-6.6 1.5-2.5 0-5 .8-6.6 2l-2.5 2-29.4-10.6A775 775 0 0 0 145.8 9q-.8.1-1.3 1.3m94.1 24.2c-1.5.8-4.8 1.5-7.2 1.5-3.6 0-4.7.5-6 2.5-1.6 2.4-1.5 2.8 1 7.8a64 64 0 0 1 7.1 21.1q1.2 8.2 2.8 4.3.4-1 1-.7c1.2 1-3.5 24-6.7 32.5a56 56 0 0 0-2.6 40q1 4.5 0 6.5c-.5 1-1 3.7-1 6s-1.7 8.5-4 14.4c-3.7 9.8-8 28-6.7 29.2.3.3 3.2-.9 6.5-2.6s9.6-3.8 14-4.7c8.1-1.7 9.5-1.6 23 2.3l2.5.7-.8-8.8a96 96 0 0 0-2.1-14 86 86 0 0 1-3-18l-.7-6.9-2.2 2.8q-2.3 3-3 1.6-.6-1.2.2-1.9a47 47 0 0 0 6.9-44.1c-3.3-9.2-5-32.5-2.5-34q1.3-.9 1.6-8.2c.1-4 .7-11.6 1.2-16.8l1-10.6c.2-3.3-14.9-4.7-20.3-1.9m27.8 1.5-3 1-1.3 11.2c-1.7 14.9-1.7 16.3.3 23.1 1.3 4.6 2 5.6 3 4.8q2.6-2 2.6 17.8c0 7.1.3 9.2 1.1 8.1q1.3-1.8.4.5l-2.6 7.5c-1 3-2.3 9-2.8 13.3-1 8.2.3 15.3 4.3 25q3 6.8.2 3.2c-1.3-1.8-1.4-1.8-2 .5a100 100 0 0 0-2 18.8c.1.2 1-.9 1.8-2.5l1.6-2.8-.6 3c-.4 1.7-1 4-1.5 5.1s-.5 7.4-.2 13.8c.6 11.3.7 11.7 2.7 11.1 14.6-4.2 21.7-4.3 30.3-.5l4.3 1.9v-2.3a101 101 0 0 0-5.5-24.6c-5-15-5.7-21.6-3.4-30.4a71 71 0 0 0 1.9-16c0-8-.4-9.8-3.9-18.4-5-12.8-6.7-18-9-28.4-1.2-5.4-1.5-8.8-.9-8.8q1 0 .4-5.7c-1-8-1-7.8.3-17.7 1-7.7 1-9.2-.3-10.5-1.8-1.8-11.7-2.4-16.2-1m-29.8 19.2c-.3 1.2-.5 3.8-.5 5.7 0 3.3.1 3.3 1.4-1.5 1.7-6 1.7-6.5.6-6.5q-.8.2-1.5 2.3m26 4.2c-.3 1-.6 2.9-.5 4.3q0 3.4 1-1.2c1-4 .6-6-.5-3M239 69.4q0 .5.5.5t.5-.5-.5-.5-.5.5m19.3 16.3c.5 12.4 3 23.8 4.8 21.1.5-.8.9-6.9.9-13.6 0-11-.2-12.5-2.2-15.7-1.3-2-2.7-3.5-3.2-3.6-.5 0-.6 5.3-.3 11.8m-19 27c-1 6-.7 15 .6 18.2.7 1.9 1-.6 1-10.2 0-7-.1-12.8-.3-12.8-.3 0-.8 2.1-1.3 4.8m36.8 15.2c0 3 2.9 9.5 5.9 12.9 2.3 2.7 2.3 2.7 3.9-1.8 1.5-4.6 1.3-7.5-.3-3.2-.7 2-1.7 3.6-2.2 3.8-1.2.4-4.2-4.6-5.9-10q-1.4-4.7-1.4-1.7m-16.5 15.2c-.7 3.7.3 15.6 1.4 16.3.5.3 1.1-2.2 1.5-5.5 1.1-9.7-1.3-18.8-2.9-10.8m15.4 11.3q0 .5.5.5t.5-.5q-.1-.6-.5-.5t-.5.5m-42 20c-2 6.8-2.8 13.5-1.1 10.5 1.3-2.3 4.4-16 3.8-16.6-.3-.3-1.5 2.4-2.6 6.1m57.3-.3 1.8 7.3c.6 2.8 1.3 4.2 1.6 3.3.4-2-2.5-12.8-3.4-12.8q-.5.2 0 2.3m-60 23.5c-5.8 2-14 7-17.4 10.7-2 2-2.3 3.4-2.1 7.7.1 2.9.4 5.4.6 5.6s1-1.3 2-3.3c2-5 2.9-4 1.5 1.6-.6 2.4-1 8-.8 12.4l.3 8 3.1-5.5a46 46 0 0 1 14.5-15q2-.8-3.2 4.6a57 57 0 0 0-6.9 8.3c-1.1 2.2-1 2.3.6 1.6 3.5-1.4 18.8-5.4 19.3-5 1.2 1.2-17.6 8.2-20.6 7.7-1.8-.4-6.3 9.2-6.2 13 0 1.8.4 4.6.8 6.3l.6 3 2.8-4.8a91 91 0 0 1 15.4-18.4c.2.3-2.2 4.5-5.5 9.3-11.5 17.5-12.2 19.5-10.2 25l1 2.6 3.2-2.4c4-3 20.8-11 21.5-10.3.3.2-1 1.2-2.7 2.1s-3 1.8-2.7 2 3.5.1 7.3-.4 8.7-.6 10.9-.1l4 .8h-4.7a69 69 0 0 0-31 9c-3.2 2-3.8 3-3.8 5.8 0 4 .2 4 4.5 1.4 5-3 14.9-6 24.4-7 15-1.7 34 1.7 41.7 7.5 3.4 2.6 4.4 2.4 4.4-1 0-3-5.5-7.9-13-11.4s-6-4 3.2-1.1c7.5 2.4 7.1 2.3 6.5.8l-1.2-3.8c-.7-2.3-.7-2.4 1-1a20 20 0 0 1 3.8 6c1.8 4 2 4.2 3.3 2.5 1.7-2.3 1.7-4.3.3-10-.6-2.3-.9-5.5-.7-7.1.4-2.8.4-2.7 1.8 1.4 2 6.3 3.4 2.9 2.7-6.7-.4-4.7-.2-7 .3-6 1.8 2.8 1-7-1-12.9-2-5.7-2-5.7 0-3.3q2 2.1 2.4 2c.3-.2 0-2.7-.5-5.4l-1.3-8-.5-3 1.9 3.5 2 3.5v-4.8c0-6.2-2.2-9.4-9.2-13.2-4.8-2.7-6.2-3-14.3-3-7.4 0-9.8.5-13.3 2.4-3.6 1.8-4.3 2.6-3.8 4.4.3 1.2.6 3 .6 4q-.2 2 2.2 1.1l2.3-.6-2.3 2.4a9 9 0 0 0-2.2 4.6c0 2 .3 2 3 1 3.9-1.3 15.6-.6 17.2 1q1.7 1.4-2 .6a24 24 0 0 0-13.5 1.9c-1.5 1-1.5 1.6-.1 5.7q1.5 4.5.9 9c-1 6.6-2.2 8.1-2.3 2.6-.2-7.4-4-15.5-9-19-3.6-2.5-5.5-3.1-11.5-3.5q-7.3-.3-5.2-1.2a41 41 0 0 1 16 0c2.5 1 2.6 1 2.4-2.7 0-2-.3-5.7-.6-8-.5-4.2-.9-4.6-5.7-6.8a44 44 0 0 0-27.2-.6m11.6 19.7q0 .5.5.5t.5-.5-.5-.5-.5.5m34 48q0 .5.5.5t.5-.5q-.1-.6-.5-.5t-.5.5M241.2 280q-12.5 3.3-15.5 6.8-1.5 1.8-1.9 9.5c-.3 7.9-.1 8.6 2 6.5.7-.7-.3 1.9-2.3 5.7s-3.8 8.3-4.1 9.9c-.7 2.8-.6 2.9 2.5 2.3 3-.6 3-.5-2.7 4.8a33 33 0 0 0-10.7 18.4l-.7 3.3 3.3-.7a31 31 0 0 0 6.3-2.1q3-1.4 3.6-.4c1 1.7 7 3 11.4 2.5 3.8-.5 3.9-.4 1.3.6-2.2.9-2.6 1.4-1.6 2.5s.6 1.3-2.2.6c-1.9-.4-6.5-.7-10.4-.6-9 .1-14.3 2.4-22.3 9.9-6.5 6-7.5 6.2-4.1.6 1-1.8 1.8-3.5 1.5-3.8-1.5-1.5-20.5 7.4-20.6 9.6a20 20 0 0 1-3 4.1q-2.7 3.1-2.3 1.6c.5-1.4-1.5-.5-7 3.3l-7.7 5.4.2 7.6c0 4.2.3 6 .5 4.1.5-5 2.3-9 4-9 1.3 0 1.2.5-.3 2.8-2.6 3.9-2.2 12.1 1 20.1 1.4 3.6 2.4 6.6 2.2 6.8-.5.5-4.4-8.9-5.6-13.4-.8-3.2-.9-2.8-.5 2.8.5 6.8 2.6 14.5 8.9 32.4 4.4 12.9 6 21.3 4.4 23.2-.6.8-3.7 2.7-6.7 4.3s-6.5 3.5-7.6 4.4c-3.3 2.5.1 1.8 4.1-.9 5.2-3.5 6.6-3.1 2.1.6q-5.6 4.7-2.6 4.9c.6 0 3-1.5 5.2-3.3 6.7-5.4 7.4-5.4 3.3-.4-3.8 4.7-3.8 4.7-1.3 4.7 1.3 0 3-.7 3.8-1.6s3.2-2.9 5.5-4.5l4.3-3-1.4 3.5c-.8 2-1.5 4-1.5 4.6 0 2.3 3.4.7 7.7-3.8q4.4-4.4 5-3.5.6 1.2 2.1 1.3 2.3.3 5.7 1.4c2.2.8 4.2 1.2 4.4 1 1-1-3.9-4.8-11.2-8.7-4.8-2.5-7.3-4.3-6.2-4.5q1.5-.4 1-1.9c-.3-.8-1.5-6.7-2.6-13a43 43 0 0 1-1-17.8 74 74 0 0 0 1.1-9.9c0-5.6-2-12.6-3.6-12.6-1.4 0-1.3 1.4.3 7.4q.5 1.8-.6 1.2a3 3 0 0 1-1.1-2c0-.7-1-3.3-2.2-5.7l-2.3-4.4h9.5c8.7 0 10-.3 14.9-3 4.6-2.5 5-3 3.6-4-1-.5-3-2-4.3-3.1-2.3-1.9-1.3-1.7 7.6 1.3 11 3.7 18 4.3 26.5 2.4 5.8-1.4 8.1-.4 4.2 1.6l-2.7 1.5 4.2 2.8c4.9 3.2 12.8 6.5 13.7 5.6.7-.7-4.6-8.6-5.8-8.6-.4 0-2.2-1.9-4-4.1l-3.3-4.2 4.3 2.4c2.4 1.3 6 4 7.8 5.7s3.5 3.2 3.7 3l2.5-3.5c7.1-10.4 25-12.2 35.1-3.6 2.3 2 4.5 3.2 4.8 2.7 1-1.4 9.3-6.6 9.8-6.2.2.2-1.7 2.4-4.1 4.8-4 4-5.7 7-3.9 7a25 25 0 0 0 9.1-6.5c1.8-2.4 1.8-2.4 8.5-1 7.4 1.6 12.3.8 24.2-4 3.3-1.3 6.2-2.3 6.4-2s-1.7 1.6-4.2 3.1-4.5 3.2-4.6 3.6 2.4 1.8 5.4 3.3a20 20 0 0 0 12.5 2.3c4-.1 7.1-.1 7.1.1q-.2.6-1.5 2.1c-.8 1-2.4 4.1-3.5 7l-2 5.5.3-4c.2-2.2.6-4.7.8-5.5q.3-1.4-1.5-1.5c-3 0-3.7 4.3-3.4 20a91 91 0 0 1-2.3 27.9 11 11 0 0 0-.5 5.1q.3 1.3-5.3 3.9a31 31 0 0 0-8.1 5.2l-2.5 2.7 3.5-.8c2-.4 5.4-.8 7.7-.8 3.6-.1 4.8.4 8 3.6 3.7 3.5 6.3 4.7 6.3 2.8 0-.5-.7-2.5-1.5-4.5-1.5-3.6-.8-4.8 1.5-2.2 2 2.4 10.9 7.8 12.2 7.4.7-.3-.4-2.2-2.8-4.8-3.2-3.5-3.4-4-1.4-3 1.4.7 4.2 2.6 6.2 4.3s4.2 2.7 5 2.5c.6-.2-.3-1.6-2.5-3.2-2-1.6-3.7-3.5-3.7-4.2q-.1-1.3-1-1.4a24 24 0 0 1-6.1-3.5q-5.6-3.7-3-3.5c1.6 0 2.1-.8 2.6-3.8.4-2 2.4-9.1 4.6-15.7 5.3-15.7 7.4-23.1 8.3-28 .6-3.8.6-4-1-2l-1.7 2 .8-2c.3-1.1 1.2-4.3 1.8-7.1 1-4.5.8-5.6-1-9.3-1.7-3.3-1.8-4.1-.6-3.7l1.9.6q.3.1.4 1.5c.1 1.4.5 1.5 1 1.5 2.5 0 .7-4.6-3.2-8.2s-6.7-5-5.3-2.8q.5.9 0 1c-.4.1-1.6-2.2-3-4.9a26 26 0 0 0-13.3-12.2c-5.3-2.3-5.2-2.3-5.2-.4 0 2-1.4 2-3 0a34 34 0 0 0-33.8-8.8q-2.6.7-1.8-.5.5-1.2-2.6-2.7l-3.3-1.5 3.5.6c3.8.7 4.8.7 12.8-.2 2.8-.3 5.2-1 5.2-1.7a45 45 0 0 0-11.4-15.4c-2.8-2.5-6.9-5.4-9.1-6.4s-3.2-1.9-2.2-1.9c2.6 0 2.2-1.1-3.1-8.1-5-6.6-7.2-10.2-7.2-11.6q.1-.6 1.5 1.1c1.4 1.8 1.5 1.3 1.5-5.7 0-7.5 0-7.6-3.5-10.2-6-4.7-14.5-6.7-29-7.1a60 60 0 0 0-20.3 1.6m39.9 12.9c1.5 6.6 6.4 17 7.5 15.8a89 89 0 0 0-8-19.7c-.2 0 0 1.7.5 3.9m-35.1-.4q0 .5.5.5t.5-.5q-.1-.6-.5-.5-.6.1-.5.5m-2.2 4.6c-2.8 6-3 8.6-.3 3.6 1.5-2.7 2.5-5.3 2.3-6q-.5-.6-2 2.4m21.4 2.9q0 2.2.5 1.3c.2-.7.2-1.9 0-2.6q-.5-.8-.5 1.3m-.2 5.8c0 3.4 2.6 23.2 3.4 25.2s1.3 6.3 2.7 19.7c1.3 12.4.5 17.7-3.3 24.3l-2 3.5 3.7-3.9c3.3-3.3 3.9-3.6 4.7-2.2 1.2 2.2 5 5.6 6.1 5.6q.8-.1-.7-1.9c-3.5-3.8-5.6-11.7-5.6-20.9 0-7.7-.5-12.2-2.5-26.2a155 155 0 0 0-5.7-26q-.7.2-.8 2.8m-22.4 12.5c.6 2.6.5 2.8-2.2 2.2s-2.6-.5 1 1.8a51 51 0 0 1 14.7 15q3.3 6.7 2.4.8c-.6-4.6-2.9-8.2-8.2-13.1a62 62 0 0 1-6.5-7l-1.8-2.5zm49 1.2a61 61 0 0 1-4.3 7.1c-3.6 5.4-5.4 12.6-3.4 13.8q1 .5 1.1-.9c0-2.8 4.1-9.9 8.4-14.4 3.2-3.3 3.6-4.2 2-3.7-1.8.6-2.3.2-2.6-1.6-.4-2.2-.5-2.2-1.3-.3m-38.3 31.1c-3 4-3 4.4-1 3 3.2-2 7.3-7.6 5.6-7.6-.7 0-2.8 2.1-4.6 4.6M287 349c0 1.2 5.2 6 6.4 6 .6 0-.5-1.6-2.4-3.5-3.7-3.8-4-4-4-2.5m61 14.2c.1.7 1 3.6 2 6.3 1.7 4.6 1.9 4.7 2 1.9 0-3.7-1.8-9.4-3.1-9.4q-.8.1-.8 1.3m-44.4 5c.4 1.8-.2 2.6-2.4 3.7-2.7 1.3-2.7 1.4-.5 1.8 1.2.2 4.6-.5 7.5-1.4 4.3-1.5 4.8-2 2.7-2.2-1.4-.2-3.7-1.2-5-2.3-2.7-1.8-2.7-1.8-2.3.4m-75.7.5c0 .5.9 1.7 2 2.7 1.4 1.3 4.1 2 9.7 2.2 5.7.3 7.4.1 6.3-.6-.8-.6-2.5-1-3.7-1s-4.5-1-7.3-2.1c-5.6-2.2-7-2.4-7-1.2m7-.3q0 .5.5.5t.5-.5q-.1-.6-.5-.5-.6.1-.5.5m-10 7.1c-.9 1-3.3 2.5-5.5 3.5l-4 1.8h3.2c4.2.1 10.5-2.9 10-4.8-.3-2.1-2.2-2.4-3.8-.5m-51.4 2.2c-8.5 2.5-8.8 2.7-5 3 4.8.4 10-1 13.5-3.8 3.2-2.5 2.4-2.4-8.5.8m142.7-1.3c.3 1.6 7.5 5.1 8.5 4.1.3-.3-5.6-4.4-8-5.4-.5-.3-.7.4-.5 1.3m44.2 1.6c2 1.2 8.6 3 8.6 2.3 0-.6-4.4-2.2-7.8-3q-3.5-.9-.8.7m-92.8 8.3a19 19 0 0 0-11.6 9.7c-2.2 4-2.5 5.5-2.5 14.9 0 16.8 3.4 26.6 12 35 3.8 3.7 5 4.3 8.6 4.3 3.9 0 4.8-.5 8.8-5q8.8-9.6 11.8-25.7a33 33 0 0 0-3.6-25.1 21 21 0 0 0-23.5-8m-18.6 26a8 8 0 0 0 1 3.5q1.1 2 1-.5a8 8 0 0 0-1-3.5q-1.1-2-1 .5m113.4 5.8-1.9 2.2 2.3-2q2-1.7 2.2-2.2 0-1.2-2.6 2m-184.4.2q0 .5.5.5t.5-.5q-.1-.6-.5-.5-.6.1-.5.5m-6 2.9q.2.5 1.8 1.7 2.3 2 .3-.4-2-2.5-2.1-1.3M373.5 462c.9 1.5 4.5 3.2 4.5 2.2 0-.5-1.2-1.4-2.6-2q-2.3-1-2-.2"/></svg>