<svg xmlns="http://www.w3.org/2000/svg" viewBox="0 0 512 512"><path fill-rule="evenodd" d="M199.5 139.6c-23 1.6-40.8 7.4-46.4 15.2-1.7 2.5-2.1 4.5-2.1 11.6 0 10.5-.6 11-10 9-12.4-2.7-27 .6-37.5 8.6l-6.5 4.9-3.7-5.6a38 38 0 0 0-61-4.9 41 41 0 0 0-11 36.4c3.1 14.6 14.8 30.3 24.8 33.3 3 1 4.5 2.2 6.1 5.1q3.5 6 8.6 4.4c1-.4 4.9.6 9 2.4 9 3.8 14.9 4 19 .5 6.7-5.6 10.7-21 8.2-31.5-1.6-6.9-2.8-7-2.2-.4 1 11.2-7.5 29.4-13.6 29.4A102 102 0 0 1 57 247.6c-3-1.8-7.1-3.9-9.1-4.5a50 50 0 0 1-16.7-16.2 39 39 0 0 1-1.5-35.1c10-21.2 35.2-27.6 52.2-13.2a83 83 0 0 1 13.6 19.3c.3 1 2.8 3 5.6 4.6 4.6 2.4 5.9 2.7 11.6 2.2 3.6-.3 7-1 7.6-1.7q1.6-1.4-1.6-.6c-3.8.9-12.9-1.8-16.4-4.8l-2.8-2.5 5.1-5c7.6-7.2 14.2-9.5 27.6-9.6 5.8 0 11 .3 11.3.7s0 1.7-1 3c-1.5 2.4-1.5 2.4 4.5-.5 15-7.5 36.2-3.3 58.4 11.4 6 4 8.2 4.7 4.6 1.4q-1.8-1.6-2-2.4c-.2-.8 3.7-.7 8.3-.8s11.1-.7 14.7-1.2c6-1 7.2-.9 14.4 1.5 6.8 2.3 9 2.6 15.3 2 6.7-.5 7.7-.3 11.2 1.8a36 36 0 0 1 13 16.6c3.4 7 3.6 8 3.6 17.5 0 8.3-.4 10.9-2.3 15.1-2.1 4.6-8.6 12.4-9.5 11.3-.2-.2 0-3.6.6-7.6 1.3-9 .4-11.3-6.2-15.4a47 47 0 0 1-12-13c-4-5.4-8-10.3-8.7-11q-4-3.3 3.4-2.5c4 .5 3.8.3-2.3-1.3-3.8-1-7-1.8-7.2-1.7s2.5 4 5.8 9 5.9 9 5.9 9.2-3-1.8-6.5-4.5c-18.8-14.5-34.4-20-48.9-17.2l-5.8 1-4-3.3a28 28 0 0 0-16-7.4c-4.6-.4-14.8 1.4-14.8 2.7 0 .3 3.3.7 7.2 1 12 .4 23 7.2 31 19.1 1.6 2.4 1.7 2.3.3-2.5l-1.5-5.4c0-.2 5-.1 11.3 0 17.5.7 23.2 4.5 28.9 19.4 2 5.2 2.3 5.6 2.6 3.2s.7-2.7 2.5-2.1a250 250 0 0 1 27.8 13.5c2.9 2 3 2.5 2.4 6.3-.7 4.5-1 7.8-2 21.1-1 13.9-3.1 22.5-10 41.2-7.3 19.5-10.5 30.2-10.5 35.3 0 6.2-5.3 11.9-13.2 14a38 38 0 0 0-10 6c-5.7 4.7-8.6 5.9-10.1 4.4-.4-.4 2-3.6 5.4-7.1s5.8-6.7 5.5-7c-.5-.5-6.3 3.2-18.5 11.6-4.2 3-8.4 4-9.5 2.3-.5-.9 9.7-10 15.7-14 2-1.4 3.6-2.7 3.3-3-.8-.8-8.3 3.8-15.1 9.3a81 81 0 0 1-9.2 6.7c-2.2 1-5.3.5-5.3-1q.2-1 19.5-15.7 3-2-.8-.5c-1.6.6-6.7 3.7-11.5 7-12.7 8.9-15.3 7.4-3-1.7 2.7-1.9 4.8-4.1 4.8-5 0-2.7 20.8-10.6 34.4-13q2.8-.6 1.5-1.3c-1-.6-.5-4 2-15.7 3.2-14.5 4.6-21.5 3.5-18-1 3.2-2 1.7-4.8-7.6a56 56 0 0 1-1-35.2c.6-1.8.4-1.7-2 .4-2.4 2.3-3.5 2.5-11 2.4a59 59 0 0 1-28.5-8c-8-4.3-10.5-4.2-6.7.4 4 4.7 2.9 9.3-3.4 15.5-3.9 3.7-5.8 4.8-9.5 5.4a54 54 0 0 1-35.3-10.4c-6.1-4-13-11.4-13.9-15.1-1.2-4.8-8.2-12.7-15.4-17.5a32 32 0 0 0-7.5-4.3c-.3.2 3 3.6 7.2 7.6l7.6 7.1-3.3.1c-1.9 0-4.5.4-5.9.8-2.2.7-1.8 1 2.5 1.6 6.9 1 12.4 3.4 13.6 5.7 1.7 3.1.5 3.2-6 .2-3.4-1.5-6.4-2.4-6.7-2.1-1 1 3 6 8.5 11a72 72 0 0 0 16.9 10.3s-1.4 5.2-3.5 11.5c-5.3 16.6-7.2 26.2-6.8 34.8.4 7.3.3 7.5-3 10.8q-3.2 3.3-6.2 3.3c-1.6 0-5.5 1.6-8.7 3.5q-8.6 5.2-10 2.6c-.6-.9 1-2.7 8.7-9.1 2-1.8 3.5-3.5 3.2-3.8-.5-.6-3.3.5-20.1 8a87 87 0 0 1-12.8 4.8c-4 0-.8-2.7 12.3-10.7 8.7-5.3 3.4-3.8-6.2 1.7L71 335.2q-2 1.4-3 .2c-2.4-2.4 21.6-15.1 32.6-17.4a44 44 0 0 0 8.6-2.6l2.7-1.4-.3-16.3a91 91 0 0 0-2.5-23.7 63 63 0 0 1-2.1-14c0-5.7-.3-7-2.4-8.9l-2.4-2.2-.6 4.4c-.7 4.7 0 10 3.4 26 1.5 7.4 2 12.6 1.8 21l-.3 11-9 2.7c-17.2 4.9-36 16.3-35.3 21.3.5 3.2 4.8 5.6 11.3 6.3 5 .5 7 .2 12-1.9 5.4-2.3 6-2.4 6.4-.9 1.2 5.7 6.9 6.6 14.5 2.3 2.8-1.5 7.5-3.4 10.4-4 6.2-1.5 11.6-6.2 12.5-10.8.3-1.6.3-4.8 0-7-.7-5.5.9-13.6 6-30.5 4.7-15.6 3.5-14.8 14.8-10.2 9.3 3.8 17.6 5 23.5 3.2a20 20 0 0 1 11.2-.4c4.6.7 8.2.7 13.3-.2 3.8-.7 8.4-1.2 10.2-1.2 2.8 0 9.2-1.4 15.3-3.4 2-.6 2.2-.2 2.7 5.7.3 3.5 2 10.5 3.6 15.6l3 9.3-2 11.7c-1 6.4-2.2 12.3-2.5 13.2-.5 2-3.6 3.2-11.4 4.8-7.8 1.7-22.1 9-24 12.3a32 32 0 0 1-6.7 6.7c-7.2 5.6-7.6 8-2.4 13.3l4.2 4 9.6.5c7.6.3 10 0 12-1.2 2.3-1.5 2.6-1.5 4.2 0q5 4.3 14.8-2.9c3.3-2.4 8.3-5.1 11.2-6 9.6-3.3 16-11.3 16-20.2.1-3.9 2-9.6 13-40.6a115 115 0 0 0 7.1-32.2c0-3.6.1-3.8 2.8-3.3 19.5 3.5 41.5 7 53.5 8.3l14.8 1.8 3.7-3.7c3-3 5-4 9.7-4.8 3.3-.6 7.8-2 10-3.1 2.5-1.3 6.3-2.1 10-2.3 3.6 0 7.4-.9 9.5-2 3-1.6 5.8-1.9 18.2-2h14.7l.7 3.8c.5 3.2 0 5-3 11-3.2 6.3-3.5 7.6-2.6 10.2 1.4 4 4 5.5 10.4 6.2 13.4 1.4 23-6.6 24.3-20.3q1-10.2 4.7 2.6c1.7 5.9 1.7 6-.9 11a24 24 0 0 0-2.5 9c0 5.2 3 7.3 11.7 7.8q20 1.3 24.8-15.3c1.6-5.2 1.6-7 .6-15.5a59 59 0 0 1-.2-17.3c1.5-10.6 1.4-15.7-.4-20.8q-4.7-13.4-20.9-10a33 33 0 0 0-8.3 2.7q-2.1 1.3-2.3.4c0-2-.2-2.6-2.3-6.2a17 17 0 0 0-13-7.8c-3.5 0-13.6 2.7-15.3 4q-3 2.5-16.9-3.8a28 28 0 0 0-16.5-3.6c-7 0-9.8.6-15.3 2.8-4.8 2-7 2.5-8 1.8-.6-.6-3.6-2-6.4-3-2.9-1.2-6.1-3-7.2-4a60 60 0 0 0-23-8.3c-8-1.7-10-2.6-13.4-5.6-2.2-2-7-5-10.6-6.7-7-3.3-8.7-3.4-41.4-3.8-4.7-.1-4.7-.1-3.2-2.4 2.3-3.5 2-18.9-.3-23.4-2.7-5-13.8-10.5-26.2-13-9.3-1.8-30.5-3-40.5-2.4m-14 6.9c-14 2.3-23 6.1-25.9 10.8-2.6 4 4.7 8.7 18.6 11.9 12.8 2.9 44.9 3.1 58.2.5 16-3.3 22.6-6.7 22.6-11.8 0-4.9-7.6-8.5-24-11.4a229 229 0 0 0-49.5 0m15.1 7c-2.6.7-5.2 1.8-5.6 2.6-4.2 6.8 22 9.7 28.5 3.2 1.5-1.5 1.5-1.7-.3-3.5-3.6-3.7-13.7-4.7-22.6-2.4m1.2 2.3q-2.6.5-2.8 1.4c0 1.9 5.6 3 12.3 2.6 6.3-.4 10-1.8 8.5-3.3-.8-.7-14.6-1.3-18-.7m-45.8 14v5l9.8.6c11.2.6 23.1 4 32 9.4 5.2 3.1 6 3.3 14.6 3.4 16.3 0 33.2-2.8 41.9-7.2 7.1-3.6 8.7-5.6 8.7-11q.1-7.4-3-3.5a53 53 0 0 1-20.3 7.9c-8 1.8-12.2 2-31.7 2a140 140 0 0 1-30-1.7c-8-1.8-17.3-5.6-20.2-8.3-1.7-1.5-1.8-1.3-1.8 3.4m109.2 16.8c-2.9.8-6.7 2.2-8.5 3.2l-3.2 1.7 3.9 1c3.2.7 4 .6 4.8-.8q1-1.7 2.9-1c2.2.6 9.2-3.2 8.3-4.7-.7-1.2-1.8-1-8.2.6m13.8 2.3c-3 1-5.4 2.1-5.3 2.5s2.2 2.2 4.5 4a50 50 0 0 1 14.3 21.2c1.5 4.4 2 8.8 2 16.5 0 9.4-.3 11-2.7 16a41 41 0 0 1-6.8 9.5l-4 4 11.2 1.6L324 269l20.5 3.1 2.8-3.2c14.5-17.2 18.1-41.1 8.5-57.4-2-3.5-8.1-6.3-19.4-8.9-8.3-1.9-8.8-1.9-7.9.2 1.4 3.5 2.4 7.6 1.7 6.7l-5-6.6a44 44 0 0 0-19-14.3c-6-2-20.1-1.9-27.2.3m-147.8 27.7c-2.6 5.4-2.8 9.2-.7 14.3a24 24 0 0 0 13 12.6q2.3.7-2.5-4.3a26 26 0 0 1-7.8-21.2l.3-5.9zm258.8-4c-.8.4-5 1.7-9.1 3l-7.6 2.6-4.8-2.1c-2.6-1.1-4.9-2-5-1.8-.5.6 3.2 13.9 4 14.7.6.5 5.3 1.2 10.5 1.6 10.3.7 13.8 2 6.2 2.2-2.6 0-7.4.4-10.7.8l-6 .7-1.8 8.2a80 80 0 0 1-5 15l-3.4 6.8 3.6-.7a41 41 0 0 0 8.7-3q5.1-2.5 10.5-2.5t10.4-2.4c4.5-2 5.7-2.2 12-1.4 8.1 1 16.7.3 24.5-2a47 47 0 0 1 26 .7c4.8 1.8 5.6 1.9 7 .6 1-.8 2.8-1.5 4.3-1.5 5.3 0 9-8.5 6.2-14-1-1.8-1.5-3.4-1.2-3.6s1.4 1.8 2.6 4.7c1.9 4.2 2 5.6 1.1 8.2-1.7 4.9-3.8 7.7-5.5 7-1.5-.5-11.5 3.5-11.5 4.7 0 1.8 3 4 6 4.3 3.1.3 3.2.5 1.3 1.2-2.7.9-2.6.4-.8 7.8 1.6 7 1.5 6.7 5.7 7.7l3.3.8-4 .1c-3.9.1-4.1.3-6.7 5.8-3.2 7-2.4 8.4 5.4 9 7.2.6 13.3-2.6 16.6-8.8 2.2-4 2.3-5 1.6-12.9-.5-4.7-.7-15.3-.6-23.7.5-21.5-1.1-24.4-13-23a19 19 0 0 0-7.5 2.7c-3 2.3-9.5 2.7-18.3.8-5.3-1-5.8-1-9.5 1.5a27 27 0 0 1-7 3.2c-2.5.6-2.1.1 2.3-2.6 2.8-1.9 5-3.8 4.9-4.4s-3.3-2.5-6.9-4.3c-9.4-4.7-16.7-5.1-28-1.8-9.8 2.9-18.9 3.4-20.7 1.2-1-1.2-.2-1.5 4.6-2 3.2-.2 10-1.7 15.2-3.2l9.3-2.9-3.3-1.3a38 38 0 0 0-15.9-1.6m46.8 4.8c-6.2 1.5-6.6 2.1-2.7 4.1 4 2.1 13.7 5.5 15.7 5.5 2.3 0 .7-6-2.4-8.8-2.8-2.4-3.7-2.5-10.6-.8m-97.8 7a65 65 0 0 0 15.4 8.2q3.1.8 2.4-.7c-.5-1.6-17.8-9-17.8-7.5m128 8.1q0 .5.5.5t.5-.5q-.1-.6-.5-.5t-.5.5M206.2 235c.5 1.6 3.6 3.3 7.8 4.4q2.2.6-1.4-1.3a41 41 0 0 1-5.4-3.3q-1.8-1.6-1 .2m-16.2 5.6a70 70 0 0 1-28 6.4q-13.5 0-1.8 2.9a39 39 0 0 0 29.8-5c6.3-3.3 10.4-7 7.9-6.9-.8 0-4.3 1.2-7.9 2.6m270-1.6c.8.5 2.9 1 4.5 1q3.4 0 1.5-1c-.8-.5-2.8-1-4.5-1q-3.4 0-1.5 1m-48.2 5.7c3.4.2 8.8.2 12 0s.3-.3-6.3-.3-9.2.1-5.7.3M230 245.8c.2 1.9 8 5.6 12.7 6 7.1.6 6.8-1.2-.5-2.8-3.1-.6-7.2-1.8-9-2.6-1.7-.7-3.2-1-3.2-.6m73.6 5.6q.4 1.4-2.3 2.4c-2.8 1-2.7 1 1.2 1.1 2.2.1 7.8 1.3 12.4 2.6 14 4 13 3.5-8.6-6-2.8-1.3-3.2-1.3-2.7-.1M177.5 258q-5.8 6-.5 3c2.2-1.2 6.6-7 5.3-7a19 19 0 0 0-4.8 4m254.2-1.8c-3.3.9-3.8 1.4-3.3 3.2.3 1.1.6 3.7.6 5.7 0 2.7.5 3.9 2.2 4.7 2.3 1 2.3 1-.4 1.1-2 0-3.2 1-5.2 4.7-3.5 6.3-3.4 8 .9 9.4 6.3 2 12.3-.2 17-6.5 2.4-3.1 2.9-4.8 3.4-13 .6-8.8.5-9.4-1.4-10a34 34 0 0 0-13.8.7M191 265c-.6 2.2-2.4 5.6-4.1 7.5l-3 3.4 2.6.7c1.5.4 4.7.4 7.3 0l13-1.7c7.8-.9 19.2-4.3 19.2-5.7 0-.4-2-.6-4.3-.4-2.4.2-7-.1-10.2-.7-4.9-1-6.1-.8-7.5.4-1.9 1.7-4 2-4 .5q.2-1 1.5-1.7c1.1-.7.2-1.5-4-3.6l-5.4-2.6zm-14.5 5q-.3.8.5 1.5c1.2.7 3-.2 3-1.6 0-1.2-2.7-1.2-3.5 0m70.7 8.8c-4.5 11.6-5.7 22.4-1.5 12.5a100 100 0 0 0 4.8-20c-.2-.2-1.6 3.2-3.3 7.5M124.1 282q0 7.6.9 6c1.2-1.8 1.2-8.8 0-11.5q-.9-2.1-1 5.5m87 67.5q0 .5.5.5t.5-.5q-.1-.6-.5-.5-.6.1-.5.5"/></svg>